<mxfile host="app.diagrams.net" agent="Mozilla/5.0 (Windows NT 10.0; Win64; x64) AppleWebKit/537.36 (KHTML, like Gecko) Chrome/132.0.0.0 Safari/537.36" version="26.0.10">
  <diagram id="R2lEEEUBdFMjLlhIrx00" name="Page-1">
    <mxGraphModel dx="1034" dy="459" grid="1" gridSize="10" guides="1" tooltips="1" connect="1" arrows="1" fold="1" page="1" pageScale="1" pageWidth="850" pageHeight="1100" math="0" shadow="0" extFonts="Permanent Marker^https://fonts.googleapis.com/css?family=Permanent+Marker">
      <root>
        <mxCell id="0" />
        <mxCell id="1" parent="0" />
        <mxCell id="C-vyLk0tnHw3VtMMgP7b-2" value="Blending" style="shape=table;startSize=30;container=1;collapsible=1;childLayout=tableLayout;fixedRows=1;rowLines=0;fontStyle=1;align=center;resizeLast=1;" parent="1" vertex="1">
          <mxGeometry x="425" y="29" width="395" height="480" as="geometry">
            <mxRectangle x="425" y="29" width="90" height="30" as="alternateBounds" />
          </mxGeometry>
        </mxCell>
        <mxCell id="C-vyLk0tnHw3VtMMgP7b-3" value="" style="shape=partialRectangle;collapsible=0;dropTarget=0;pointerEvents=0;fillColor=none;points=[[0,0.5],[1,0.5]];portConstraint=eastwest;top=0;left=0;right=0;bottom=1;" parent="C-vyLk0tnHw3VtMMgP7b-2" vertex="1">
          <mxGeometry y="30" width="395" height="30" as="geometry" />
        </mxCell>
        <mxCell id="C-vyLk0tnHw3VtMMgP7b-4" value="" style="shape=partialRectangle;overflow=hidden;connectable=0;fillColor=none;top=0;left=0;bottom=0;right=0;fontStyle=1;" parent="C-vyLk0tnHw3VtMMgP7b-3" vertex="1">
          <mxGeometry width="30" height="30" as="geometry">
            <mxRectangle width="30" height="30" as="alternateBounds" />
          </mxGeometry>
        </mxCell>
        <mxCell id="C-vyLk0tnHw3VtMMgP7b-5" value="Name" style="shape=partialRectangle;overflow=hidden;connectable=0;fillColor=none;top=0;left=0;bottom=0;right=0;align=left;spacingLeft=6;fontStyle=5;" parent="C-vyLk0tnHw3VtMMgP7b-3" vertex="1">
          <mxGeometry x="30" width="365" height="30" as="geometry">
            <mxRectangle width="365" height="30" as="alternateBounds" />
          </mxGeometry>
        </mxCell>
        <mxCell id="C-vyLk0tnHw3VtMMgP7b-6" value="" style="shape=partialRectangle;collapsible=0;dropTarget=0;pointerEvents=0;fillColor=none;points=[[0,0.5],[1,0.5]];portConstraint=eastwest;top=0;left=0;right=0;bottom=0;" parent="C-vyLk0tnHw3VtMMgP7b-2" vertex="1">
          <mxGeometry y="60" width="395" height="30" as="geometry" />
        </mxCell>
        <mxCell id="C-vyLk0tnHw3VtMMgP7b-7" value="PK" style="shape=partialRectangle;overflow=hidden;connectable=0;fillColor=none;top=0;left=0;bottom=0;right=0;" parent="C-vyLk0tnHw3VtMMgP7b-6" vertex="1">
          <mxGeometry width="30" height="30" as="geometry">
            <mxRectangle width="30" height="30" as="alternateBounds" />
          </mxGeometry>
        </mxCell>
        <mxCell id="C-vyLk0tnHw3VtMMgP7b-8" value="" style="shape=partialRectangle;overflow=hidden;connectable=0;fillColor=none;top=0;left=0;bottom=0;right=0;align=left;spacingLeft=6;" parent="C-vyLk0tnHw3VtMMgP7b-6" vertex="1">
          <mxGeometry x="30" width="365" height="30" as="geometry">
            <mxRectangle width="365" height="30" as="alternateBounds" />
          </mxGeometry>
        </mxCell>
        <mxCell id="C-vyLk0tnHw3VtMMgP7b-9" value="" style="shape=partialRectangle;collapsible=0;dropTarget=0;pointerEvents=0;fillColor=none;points=[[0,0.5],[1,0.5]];portConstraint=eastwest;top=0;left=0;right=0;bottom=0;" parent="C-vyLk0tnHw3VtMMgP7b-2" vertex="1">
          <mxGeometry y="90" width="395" height="30" as="geometry" />
        </mxCell>
        <mxCell id="C-vyLk0tnHw3VtMMgP7b-10" value="" style="shape=partialRectangle;overflow=hidden;connectable=0;fillColor=none;top=0;left=0;bottom=0;right=0;" parent="C-vyLk0tnHw3VtMMgP7b-9" vertex="1">
          <mxGeometry width="30" height="30" as="geometry">
            <mxRectangle width="30" height="30" as="alternateBounds" />
          </mxGeometry>
        </mxCell>
        <mxCell id="C-vyLk0tnHw3VtMMgP7b-11" value="" style="shape=partialRectangle;overflow=hidden;connectable=0;fillColor=none;top=0;left=0;bottom=0;right=0;align=left;spacingLeft=6;" parent="C-vyLk0tnHw3VtMMgP7b-9" vertex="1">
          <mxGeometry x="30" width="365" height="30" as="geometry">
            <mxRectangle width="365" height="30" as="alternateBounds" />
          </mxGeometry>
        </mxCell>
        <mxCell id="C-vyLk0tnHw3VtMMgP7b-13" value="Pile Details" style="shape=table;startSize=30;container=1;collapsible=1;childLayout=tableLayout;fixedRows=1;rowLines=0;fontStyle=1;align=center;resizeLast=1;" parent="1" vertex="1">
          <mxGeometry x="437.5" y="602" width="292.5" height="558" as="geometry">
            <mxRectangle x="437.5" y="602" width="110" height="30" as="alternateBounds" />
          </mxGeometry>
        </mxCell>
        <mxCell id="C-vyLk0tnHw3VtMMgP7b-14" value="" style="shape=partialRectangle;collapsible=0;dropTarget=0;pointerEvents=0;fillColor=none;points=[[0,0.5],[1,0.5]];portConstraint=eastwest;top=0;left=0;right=0;bottom=1;" parent="C-vyLk0tnHw3VtMMgP7b-13" vertex="1">
          <mxGeometry y="30" width="292.5" height="30" as="geometry" />
        </mxCell>
        <mxCell id="C-vyLk0tnHw3VtMMgP7b-15" value="" style="shape=partialRectangle;overflow=hidden;connectable=0;fillColor=none;top=0;left=0;bottom=0;right=0;fontStyle=1;" parent="C-vyLk0tnHw3VtMMgP7b-14" vertex="1">
          <mxGeometry width="30" height="30" as="geometry">
            <mxRectangle width="30" height="30" as="alternateBounds" />
          </mxGeometry>
        </mxCell>
        <mxCell id="C-vyLk0tnHw3VtMMgP7b-16" value="Name" style="shape=partialRectangle;overflow=hidden;connectable=0;fillColor=none;top=0;left=0;bottom=0;right=0;align=left;spacingLeft=6;fontStyle=5;" parent="C-vyLk0tnHw3VtMMgP7b-14" vertex="1">
          <mxGeometry x="30" width="262.5" height="30" as="geometry">
            <mxRectangle width="262.5" height="30" as="alternateBounds" />
          </mxGeometry>
        </mxCell>
        <mxCell id="C-vyLk0tnHw3VtMMgP7b-17" value="" style="shape=partialRectangle;collapsible=0;dropTarget=0;pointerEvents=0;fillColor=none;points=[[0,0.5],[1,0.5]];portConstraint=eastwest;top=0;left=0;right=0;bottom=0;" parent="C-vyLk0tnHw3VtMMgP7b-13" vertex="1">
          <mxGeometry y="60" width="292.5" height="30" as="geometry" />
        </mxCell>
        <mxCell id="C-vyLk0tnHw3VtMMgP7b-18" value="PK" style="shape=partialRectangle;overflow=hidden;connectable=0;fillColor=none;top=0;left=0;bottom=0;right=0;" parent="C-vyLk0tnHw3VtMMgP7b-17" vertex="1">
          <mxGeometry width="30" height="30" as="geometry">
            <mxRectangle width="30" height="30" as="alternateBounds" />
          </mxGeometry>
        </mxCell>
        <mxCell id="C-vyLk0tnHw3VtMMgP7b-19" value="Sl.no" style="shape=partialRectangle;overflow=hidden;connectable=0;fillColor=none;top=0;left=0;bottom=0;right=0;align=left;spacingLeft=6;" parent="C-vyLk0tnHw3VtMMgP7b-17" vertex="1">
          <mxGeometry x="30" width="262.5" height="30" as="geometry">
            <mxRectangle width="262.5" height="30" as="alternateBounds" />
          </mxGeometry>
        </mxCell>
        <mxCell id="C-vyLk0tnHw3VtMMgP7b-20" value="" style="shape=partialRectangle;collapsible=0;dropTarget=0;pointerEvents=0;fillColor=none;points=[[0,0.5],[1,0.5]];portConstraint=eastwest;top=0;left=0;right=0;bottom=0;" parent="C-vyLk0tnHw3VtMMgP7b-13" vertex="1">
          <mxGeometry y="90" width="292.5" height="30" as="geometry" />
        </mxCell>
        <mxCell id="C-vyLk0tnHw3VtMMgP7b-21" value="" style="shape=partialRectangle;overflow=hidden;connectable=0;fillColor=none;top=0;left=0;bottom=0;right=0;" parent="C-vyLk0tnHw3VtMMgP7b-20" vertex="1">
          <mxGeometry width="30" height="30" as="geometry">
            <mxRectangle width="30" height="30" as="alternateBounds" />
          </mxGeometry>
        </mxCell>
        <mxCell id="C-vyLk0tnHw3VtMMgP7b-22" value="" style="shape=partialRectangle;overflow=hidden;connectable=0;fillColor=none;top=0;left=0;bottom=0;right=0;align=left;spacingLeft=6;" parent="C-vyLk0tnHw3VtMMgP7b-20" vertex="1">
          <mxGeometry x="30" width="262.5" height="30" as="geometry">
            <mxRectangle width="262.5" height="30" as="alternateBounds" />
          </mxGeometry>
        </mxCell>
        <mxCell id="C-vyLk0tnHw3VtMMgP7b-23" value="Pile Summary" style="shape=table;startSize=30;container=1;collapsible=1;childLayout=tableLayout;fixedRows=1;rowLines=0;fontStyle=1;align=center;resizeLast=1;" parent="1" vertex="1">
          <mxGeometry x="20" y="528" width="260" height="272" as="geometry">
            <mxRectangle x="20" y="528" width="100" height="30" as="alternateBounds" />
          </mxGeometry>
        </mxCell>
        <mxCell id="C-vyLk0tnHw3VtMMgP7b-24" value="" style="shape=partialRectangle;collapsible=0;dropTarget=0;pointerEvents=0;fillColor=none;points=[[0,0.5],[1,0.5]];portConstraint=eastwest;top=0;left=0;right=0;bottom=1;" parent="C-vyLk0tnHw3VtMMgP7b-23" vertex="1">
          <mxGeometry y="30" width="260" height="30" as="geometry" />
        </mxCell>
        <mxCell id="C-vyLk0tnHw3VtMMgP7b-25" value="" style="shape=partialRectangle;overflow=hidden;connectable=0;fillColor=none;top=0;left=0;bottom=0;right=0;fontStyle=1;" parent="C-vyLk0tnHw3VtMMgP7b-24" vertex="1">
          <mxGeometry width="30" height="30" as="geometry">
            <mxRectangle width="30" height="30" as="alternateBounds" />
          </mxGeometry>
        </mxCell>
        <mxCell id="C-vyLk0tnHw3VtMMgP7b-26" value="Name" style="shape=partialRectangle;overflow=hidden;connectable=0;fillColor=none;top=0;left=0;bottom=0;right=0;align=left;spacingLeft=6;fontStyle=5;" parent="C-vyLk0tnHw3VtMMgP7b-24" vertex="1">
          <mxGeometry x="30" width="230" height="30" as="geometry">
            <mxRectangle width="230" height="30" as="alternateBounds" />
          </mxGeometry>
        </mxCell>
        <mxCell id="C-vyLk0tnHw3VtMMgP7b-27" value="" style="shape=partialRectangle;collapsible=0;dropTarget=0;pointerEvents=0;fillColor=none;points=[[0,0.5],[1,0.5]];portConstraint=eastwest;top=0;left=0;right=0;bottom=0;" parent="C-vyLk0tnHw3VtMMgP7b-23" vertex="1">
          <mxGeometry y="60" width="260" height="30" as="geometry" />
        </mxCell>
        <mxCell id="C-vyLk0tnHw3VtMMgP7b-28" value="" style="shape=partialRectangle;overflow=hidden;connectable=0;fillColor=none;top=0;left=0;bottom=0;right=0;" parent="C-vyLk0tnHw3VtMMgP7b-27" vertex="1">
          <mxGeometry width="30" height="30" as="geometry">
            <mxRectangle width="30" height="30" as="alternateBounds" />
          </mxGeometry>
        </mxCell>
        <mxCell id="C-vyLk0tnHw3VtMMgP7b-29" value="" style="shape=partialRectangle;overflow=hidden;connectable=0;fillColor=none;top=0;left=0;bottom=0;right=0;align=left;spacingLeft=6;" parent="C-vyLk0tnHw3VtMMgP7b-27" vertex="1">
          <mxGeometry x="30" width="230" height="30" as="geometry">
            <mxRectangle width="230" height="30" as="alternateBounds" />
          </mxGeometry>
        </mxCell>
        <mxCell id="hRT7QsjVRdOqOcWxOTI7-2" value="AVILABLE QUANITY &lt;br&gt;PILE WTD GCV &lt;br&gt;TOP GCV &lt;br&gt;TOP QNTY &lt;br&gt;BOTTOM GCV &lt;br&gt;BOTTOM QNTY&lt;br&gt;MAX AGING &lt;br&gt;AVERAGE AGING&lt;br&gt;&amp;gt;3500&lt;br&gt;3100-3500&lt;br&gt;&amp;lt;3100&lt;div&gt;WT&lt;/div&gt;" style="text;whiteSpace=wrap;html=1;" parent="1" vertex="1">
          <mxGeometry x="60" y="609" width="150" height="180" as="geometry" />
        </mxCell>
        <mxCell id="hRT7QsjVRdOqOcWxOTI7-4" value="Pile Id" style="text;html=1;align=center;verticalAlign=middle;whiteSpace=wrap;rounded=0;" parent="1" vertex="1">
          <mxGeometry x="463" y="113" width="60" height="30" as="geometry" />
        </mxCell>
        <mxCell id="hRT7QsjVRdOqOcWxOTI7-8" value="&lt;p class=&quot;MsoNormal&quot; style=&quot;forced-color-adjust: none; color: rgb(0, 0, 0); font-family: Helvetica; font-size: 12px; font-style: normal; font-variant-ligatures: normal; font-variant-caps: normal; font-weight: 400; letter-spacing: normal; orphans: 2; text-align: left; text-indent: 0px; text-transform: none; widows: 2; word-spacing: 0px; -webkit-text-stroke-width: 0px; white-space: normal; background-color: rgb(251, 251, 251); text-decoration-thickness: initial; text-decoration-style: initial; text-decoration-color: initial;&quot;&gt;Quantity top&lt;/p&gt;&lt;p class=&quot;MsoNormal&quot; style=&quot;forced-color-adjust: none; color: rgb(0, 0, 0); font-family: Helvetica; font-size: 12px; font-style: normal; font-variant-ligatures: normal; font-variant-caps: normal; font-weight: 400; letter-spacing: normal; orphans: 2; text-align: left; text-indent: 0px; text-transform: none; widows: 2; word-spacing: 0px; -webkit-text-stroke-width: 0px; white-space: normal; background-color: rgb(251, 251, 251); text-decoration-thickness: initial; text-decoration-style: initial; text-decoration-color: initial;&quot;&gt;&lt;span style=&quot;forced-color-adjust: none; background-color: transparent; color: light-dark(rgb(0, 0, 0), rgb(255, 255, 255));&quot;&gt;GCV top&lt;/span&gt;&lt;/p&gt;&lt;p class=&quot;MsoNormal&quot; style=&quot;forced-color-adjust: none; color: rgb(0, 0, 0); font-family: Helvetica; font-size: 12px; font-style: normal; font-variant-ligatures: normal; font-variant-caps: normal; font-weight: 400; letter-spacing: normal; orphans: 2; text-align: left; text-indent: 0px; text-transform: none; widows: 2; word-spacing: 0px; -webkit-text-stroke-width: 0px; white-space: normal; background-color: rgb(251, 251, 251); text-decoration-thickness: initial; text-decoration-style: initial; text-decoration-color: initial;&quot;&gt;&lt;span style=&quot;forced-color-adjust: none; background-color: transparent; color: light-dark(rgb(0, 0, 0), rgb(255, 255, 255));&quot;&gt;GCV BTM&lt;/span&gt;&lt;/p&gt;&lt;p class=&quot;MsoNormal&quot; style=&quot;forced-color-adjust: none; color: rgb(0, 0, 0); font-family: Helvetica; font-size: 12px; font-style: normal; font-variant-ligatures: normal; font-variant-caps: normal; font-weight: 400; letter-spacing: normal; orphans: 2; text-align: left; text-indent: 0px; text-transform: none; widows: 2; word-spacing: 0px; -webkit-text-stroke-width: 0px; white-space: normal; background-color: rgb(251, 251, 251); text-decoration-thickness: initial; text-decoration-style: initial; text-decoration-color: initial;&quot;&gt;Aging&lt;/p&gt;&lt;p class=&quot;MsoNormal&quot; style=&quot;forced-color-adjust: none; color: rgb(0, 0, 0); font-family: Helvetica; font-size: 12px; font-style: normal; font-variant-ligatures: normal; font-variant-caps: normal; font-weight: 400; letter-spacing: normal; orphans: 2; text-align: left; text-indent: 0px; text-transform: none; widows: 2; word-spacing: 0px; -webkit-text-stroke-width: 0px; white-space: normal; background-color: rgb(251, 251, 251); text-decoration-thickness: initial; text-decoration-style: initial; text-decoration-color: initial;&quot;&gt;Blended GCV@20%&lt;/p&gt;&lt;p class=&quot;MsoNormal&quot; style=&quot;forced-color-adjust: none; color: rgb(0, 0, 0); font-family: Helvetica; font-size: 12px; font-style: normal; font-variant-ligatures: normal; font-variant-caps: normal; font-weight: 400; letter-spacing: normal; orphans: 2; text-align: left; text-indent: 0px; text-transform: none; widows: 2; word-spacing: 0px; -webkit-text-stroke-width: 0px; white-space: normal; background-color: rgb(251, 251, 251); text-decoration-thickness: initial; text-decoration-style: initial; text-decoration-color: initial;&quot;&gt;Blended GCV @15%&lt;/p&gt;&lt;p class=&quot;MsoNormal&quot; style=&quot;forced-color-adjust: none; color: rgb(0, 0, 0); font-family: Helvetica; font-size: 12px; font-style: normal; font-variant-ligatures: normal; font-variant-caps: normal; font-weight: 400; letter-spacing: normal; orphans: 2; text-align: left; text-indent: 0px; text-transform: none; widows: 2; word-spacing: 0px; -webkit-text-stroke-width: 0px; white-space: normal; background-color: rgb(251, 251, 251); text-decoration-thickness: initial; text-decoration-style: initial; text-decoration-color: initial;&quot;&gt;Blended GCV @10%&lt;/p&gt;&lt;p class=&quot;MsoNormal&quot; style=&quot;forced-color-adjust: none; color: rgb(0, 0, 0); font-family: Helvetica; font-size: 12px; font-style: normal; font-variant-ligatures: normal; font-variant-caps: normal; font-weight: 400; letter-spacing: normal; orphans: 2; text-align: left; text-indent: 0px; text-transform: none; widows: 2; word-spacing: 0px; -webkit-text-stroke-width: 0px; white-space: normal; background-color: rgb(251, 251, 251); text-decoration-thickness: initial; text-decoration-style: initial; text-decoration-color: initial;&quot;&gt;Blending possibility @ 20%&lt;/p&gt;&lt;p class=&quot;MsoNormal&quot; style=&quot;forced-color-adjust: none; color: rgb(0, 0, 0); font-family: Helvetica; font-size: 12px; font-style: normal; font-variant-ligatures: normal; font-variant-caps: normal; font-weight: 400; letter-spacing: normal; orphans: 2; text-align: left; text-indent: 0px; text-transform: none; widows: 2; word-spacing: 0px; -webkit-text-stroke-width: 0px; white-space: normal; background-color: rgb(251, 251, 251); text-decoration-thickness: initial; text-decoration-style: initial; text-decoration-color: initial;&quot;&gt;Blending possibility @ 15%&lt;/p&gt;&lt;p class=&quot;MsoNormal&quot; style=&quot;forced-color-adjust: none; color: rgb(0, 0, 0); font-family: Helvetica; font-size: 12px; font-style: normal; font-variant-ligatures: normal; font-variant-caps: normal; font-weight: 400; letter-spacing: normal; orphans: 2; text-align: left; text-indent: 0px; text-transform: none; widows: 2; word-spacing: 0px; -webkit-text-stroke-width: 0px; white-space: normal; background-color: rgb(251, 251, 251); text-decoration-thickness: initial; text-decoration-style: initial; text-decoration-color: initial;&quot;&gt;Blending possibility @ 10%&lt;/p&gt;&lt;p class=&quot;MsoNormal&quot; style=&quot;forced-color-adjust: none; color: rgb(0, 0, 0); font-family: Helvetica; font-size: 12px; font-style: normal; font-variant-ligatures: normal; font-variant-caps: normal; font-weight: 400; letter-spacing: normal; orphans: 2; text-align: left; text-indent: 0px; text-transform: none; widows: 2; word-spacing: 0px; -webkit-text-stroke-width: 0px; white-space: normal; background-color: rgb(251, 251, 251); text-decoration-thickness: initial; text-decoration-style: initial; text-decoration-color: initial;&quot;&gt;Blending possible&lt;/p&gt;&lt;p class=&quot;MsoNormal&quot; style=&quot;forced-color-adjust: none; color: rgb(0, 0, 0); font-family: Helvetica; font-size: 12px; font-style: normal; font-variant-ligatures: normal; font-variant-caps: normal; font-weight: 400; letter-spacing: normal; orphans: 2; text-align: left; text-indent: 0px; text-transform: none; widows: 2; word-spacing: 0px; -webkit-text-stroke-width: 0px; white-space: normal; background-color: rgb(251, 251, 251); text-decoration-thickness: initial; text-decoration-style: initial; text-decoration-color: initial;&quot;&gt;Priority as per aging&lt;/p&gt;&lt;p class=&quot;MsoNormal&quot; style=&quot;forced-color-adjust: none; color: rgb(0, 0, 0); font-family: Helvetica; font-size: 12px; font-style: normal; font-variant-ligatures: normal; font-variant-caps: normal; font-weight: 400; letter-spacing: normal; orphans: 2; text-align: left; text-indent: 0px; text-transform: none; widows: 2; word-spacing: 0px; -webkit-text-stroke-width: 0px; white-space: normal; background-color: rgb(251, 251, 251); text-decoration-thickness: initial; text-decoration-style: initial; text-decoration-color: initial;&quot;&gt;Priority to create approch to bottom coal&lt;/p&gt;&lt;p class=&quot;MsoNormal&quot; style=&quot;forced-color-adjust: none; color: rgb(0, 0, 0); font-family: Helvetica; font-size: 12px; font-style: normal; font-variant-ligatures: normal; font-variant-caps: normal; font-weight: 400; letter-spacing: normal; orphans: 2; text-align: left; text-indent: 0px; text-transform: none; widows: 2; word-spacing: 0px; -webkit-text-stroke-width: 0px; white-space: normal; background-color: rgb(251, 251, 251); text-decoration-thickness: initial; text-decoration-style: initial; text-decoration-color: initial;&quot;&gt;&lt;span style=&quot;forced-color-adjust: none; background-color: transparent; color: light-dark(rgb(0, 0, 0), rgb(255, 255, 255));&quot;&gt;PRIORITY&lt;/span&gt;&lt;/p&gt;" style="text;whiteSpace=wrap;html=1;" parent="1" vertex="1">
          <mxGeometry x="470" y="125" width="250" height="380" as="geometry" />
        </mxCell>
        <mxCell id="hRT7QsjVRdOqOcWxOTI7-9" value="" style="endArrow=none;html=1;rounded=0;entryX=0.077;entryY=1.085;entryDx=0;entryDy=0;entryPerimeter=0;" parent="1" edge="1">
          <mxGeometry width="50" height="50" relative="1" as="geometry">
            <mxPoint x="454" y="512" as="sourcePoint" />
            <mxPoint x="454.41499999999996" y="143.55000000000007" as="targetPoint" />
          </mxGeometry>
        </mxCell>
        <mxCell id="hRT7QsjVRdOqOcWxOTI7-10" value="&lt;p style=&quot;text-align: left;&quot; class=&quot;MsoNormal&quot;&gt;STACKING DATE&lt;/p&gt;&lt;p style=&quot;text-align: left;&quot; class=&quot;MsoNormal&quot;&gt;RAKE NO&lt;/p&gt;&lt;p style=&quot;text-align: left;&quot; class=&quot;MsoNormal&quot;&gt;&lt;span style=&quot;background-color: transparent; color: light-dark(rgb(0, 0, 0), rgb(255, 255, 255));&quot;&gt;SPUR&lt;/span&gt;&lt;/p&gt;&lt;p style=&quot;text-align: left;&quot; class=&quot;MsoNormal&quot;&gt;SUB PILE&lt;/p&gt;&lt;p style=&quot;text-align: left;&quot; class=&quot;MsoNormal&quot;&gt;TOP/BOTTOM&lt;/p&gt;&lt;p style=&quot;text-align: left;&quot; class=&quot;MsoNormal&quot;&gt;ST QNTY&lt;/p&gt;&lt;p style=&quot;text-align: left;&quot; class=&quot;MsoNormal&quot;&gt;GCV&lt;/p&gt;&lt;p style=&quot;text-align: left;&quot; class=&quot;MsoNormal&quot;&gt;RECLIAM DATE&lt;/p&gt;&lt;p style=&quot;text-align: left;&quot; class=&quot;MsoNormal&quot;&gt;RC-QNTY&lt;/p&gt;&lt;p style=&quot;text-align: left;&quot; class=&quot;MsoNormal&quot;&gt;AVAILABLE QUANTITY&lt;/p&gt;&lt;p style=&quot;text-align: left;&quot; class=&quot;MsoNormal&quot;&gt;AGING  TOP GCV&lt;/p&gt;&lt;p style=&quot;text-align: left;&quot; class=&quot;MsoNormal&quot;&gt;TOP QNTY&lt;/p&gt;&lt;p style=&quot;text-align: left;&quot; class=&quot;MsoNormal&quot;&gt;BTM GCV&lt;/p&gt;&lt;p style=&quot;text-align: left;&quot; class=&quot;MsoNormal&quot;&gt;BTM QNTY&lt;/p&gt;&lt;p style=&quot;text-align: left;&quot; class=&quot;MsoNormal&quot;&gt;coal above 3500&lt;/p&gt;&lt;p style=&quot;text-align: left;&quot; class=&quot;MsoNormal&quot;&gt;3100-3500&lt;/p&gt;&lt;p style=&quot;text-align: left;&quot; class=&quot;MsoNormal&quot;&gt;&amp;lt;3100&lt;/p&gt;" style="text;html=1;align=center;verticalAlign=middle;whiteSpace=wrap;rounded=0;" parent="1" vertex="1">
          <mxGeometry x="463" y="693" width="155" height="480" as="geometry" />
        </mxCell>
        <mxCell id="hRT7QsjVRdOqOcWxOTI7-11" value="" style="endArrow=none;html=1;rounded=0;entryX=0.025;entryY=0.043;entryDx=0;entryDy=0;entryPerimeter=0;exitX=0.032;exitY=0.963;exitDx=0;exitDy=0;exitPerimeter=0;" parent="1" target="hRT7QsjVRdOqOcWxOTI7-10" edge="1">
          <mxGeometry width="50" height="50" relative="1" as="geometry">
            <mxPoint x="467.96000000000004" y="1159.2399999999998" as="sourcePoint" />
            <mxPoint x="468.11500000000024" y="741.1600000000001" as="targetPoint" />
          </mxGeometry>
        </mxCell>
        <mxCell id="gYdM4bsDaqwmHsJYvP-w-2" value="Blending Summary" style="shape=table;startSize=30;container=1;collapsible=1;childLayout=tableLayout;fixedRows=1;rowLines=0;fontStyle=1;align=center;resizeLast=1;html=1;" parent="1" vertex="1">
          <mxGeometry x="45" y="39" width="245" height="151" as="geometry">
            <mxRectangle x="45" y="39" width="140" height="30" as="alternateBounds" />
          </mxGeometry>
        </mxCell>
        <mxCell id="gYdM4bsDaqwmHsJYvP-w-3" value="" style="shape=tableRow;horizontal=0;startSize=0;swimlaneHead=0;swimlaneBody=0;fillColor=none;collapsible=0;dropTarget=0;points=[[0,0.5],[1,0.5]];portConstraint=eastwest;top=0;left=0;right=0;bottom=1;" parent="gYdM4bsDaqwmHsJYvP-w-2" vertex="1">
          <mxGeometry y="30" width="245" height="30" as="geometry" />
        </mxCell>
        <mxCell id="gYdM4bsDaqwmHsJYvP-w-4" value="" style="shape=partialRectangle;connectable=0;fillColor=none;top=0;left=0;bottom=0;right=0;fontStyle=1;overflow=hidden;whiteSpace=wrap;html=1;" parent="gYdM4bsDaqwmHsJYvP-w-3" vertex="1">
          <mxGeometry width="30" height="30" as="geometry">
            <mxRectangle width="30" height="30" as="alternateBounds" />
          </mxGeometry>
        </mxCell>
        <mxCell id="gYdM4bsDaqwmHsJYvP-w-5" value="Name" style="shape=partialRectangle;connectable=0;fillColor=none;top=0;left=0;bottom=0;right=0;align=left;spacingLeft=6;fontStyle=5;overflow=hidden;whiteSpace=wrap;html=1;" parent="gYdM4bsDaqwmHsJYvP-w-3" vertex="1">
          <mxGeometry x="30" width="215" height="30" as="geometry">
            <mxRectangle width="215" height="30" as="alternateBounds" />
          </mxGeometry>
        </mxCell>
        <mxCell id="gYdM4bsDaqwmHsJYvP-w-6" value="" style="shape=tableRow;horizontal=0;startSize=0;swimlaneHead=0;swimlaneBody=0;fillColor=none;collapsible=0;dropTarget=0;points=[[0,0.5],[1,0.5]];portConstraint=eastwest;top=0;left=0;right=0;bottom=0;" parent="gYdM4bsDaqwmHsJYvP-w-2" vertex="1">
          <mxGeometry y="60" width="245" height="20" as="geometry" />
        </mxCell>
        <mxCell id="gYdM4bsDaqwmHsJYvP-w-7" value="" style="shape=partialRectangle;connectable=0;fillColor=none;top=0;left=0;bottom=0;right=0;editable=1;overflow=hidden;whiteSpace=wrap;html=1;" parent="gYdM4bsDaqwmHsJYvP-w-6" vertex="1">
          <mxGeometry width="30" height="20" as="geometry">
            <mxRectangle width="30" height="20" as="alternateBounds" />
          </mxGeometry>
        </mxCell>
        <mxCell id="gYdM4bsDaqwmHsJYvP-w-8" value="SL.NO" style="shape=partialRectangle;connectable=0;fillColor=none;top=0;left=0;bottom=0;right=0;align=left;spacingLeft=6;overflow=hidden;whiteSpace=wrap;html=1;" parent="gYdM4bsDaqwmHsJYvP-w-6" vertex="1">
          <mxGeometry x="30" width="215" height="20" as="geometry">
            <mxRectangle width="215" height="20" as="alternateBounds" />
          </mxGeometry>
        </mxCell>
        <mxCell id="gYdM4bsDaqwmHsJYvP-w-9" value="" style="shape=tableRow;horizontal=0;startSize=0;swimlaneHead=0;swimlaneBody=0;fillColor=none;collapsible=0;dropTarget=0;points=[[0,0.5],[1,0.5]];portConstraint=eastwest;top=0;left=0;right=0;bottom=0;" parent="gYdM4bsDaqwmHsJYvP-w-2" vertex="1">
          <mxGeometry y="80" width="245" height="30" as="geometry" />
        </mxCell>
        <mxCell id="gYdM4bsDaqwmHsJYvP-w-10" value="" style="shape=partialRectangle;connectable=0;fillColor=none;top=0;left=0;bottom=0;right=0;editable=1;overflow=hidden;whiteSpace=wrap;html=1;" parent="gYdM4bsDaqwmHsJYvP-w-9" vertex="1">
          <mxGeometry width="30" height="30" as="geometry">
            <mxRectangle width="30" height="30" as="alternateBounds" />
          </mxGeometry>
        </mxCell>
        <mxCell id="gYdM4bsDaqwmHsJYvP-w-11" value="Decision description" style="shape=partialRectangle;connectable=0;fillColor=none;top=0;left=0;bottom=0;right=0;align=left;spacingLeft=6;overflow=hidden;whiteSpace=wrap;html=1;" parent="gYdM4bsDaqwmHsJYvP-w-9" vertex="1">
          <mxGeometry x="30" width="215" height="30" as="geometry">
            <mxRectangle width="215" height="30" as="alternateBounds" />
          </mxGeometry>
        </mxCell>
        <mxCell id="gYdM4bsDaqwmHsJYvP-w-12" value="" style="shape=tableRow;horizontal=0;startSize=0;swimlaneHead=0;swimlaneBody=0;fillColor=none;collapsible=0;dropTarget=0;points=[[0,0.5],[1,0.5]];portConstraint=eastwest;top=0;left=0;right=0;bottom=0;" parent="gYdM4bsDaqwmHsJYvP-w-2" vertex="1">
          <mxGeometry y="110" width="245" height="30" as="geometry" />
        </mxCell>
        <mxCell id="gYdM4bsDaqwmHsJYvP-w-13" value="" style="shape=partialRectangle;connectable=0;fillColor=none;top=0;left=0;bottom=0;right=0;editable=1;overflow=hidden;whiteSpace=wrap;html=1;" parent="gYdM4bsDaqwmHsJYvP-w-12" vertex="1">
          <mxGeometry width="30" height="30" as="geometry">
            <mxRectangle width="30" height="30" as="alternateBounds" />
          </mxGeometry>
        </mxCell>
        <mxCell id="gYdM4bsDaqwmHsJYvP-w-14" value="" style="shape=partialRectangle;connectable=0;fillColor=none;top=0;left=0;bottom=0;right=0;align=left;spacingLeft=6;overflow=hidden;whiteSpace=wrap;html=1;" parent="gYdM4bsDaqwmHsJYvP-w-12" vertex="1">
          <mxGeometry x="30" width="215" height="30" as="geometry">
            <mxRectangle width="215" height="30" as="alternateBounds" />
          </mxGeometry>
        </mxCell>
        <mxCell id="_dtVbm7WVHYgLpaVK0QW-20" value="" style="endArrow=none;html=1;rounded=0;entryX=0.62;entryY=0.019;entryDx=0;entryDy=0;entryPerimeter=0;" parent="gYdM4bsDaqwmHsJYvP-w-2" target="gYdM4bsDaqwmHsJYvP-w-3" edge="1">
          <mxGeometry width="50" height="50" relative="1" as="geometry">
            <mxPoint x="155" y="152" as="sourcePoint" />
            <mxPoint x="235" y="220" as="targetPoint" />
          </mxGeometry>
        </mxCell>
        <mxCell id="gYdM4bsDaqwmHsJYvP-w-15" value="" style="edgeStyle=entityRelationEdgeStyle;fontSize=12;html=1;endArrow=ERmany;rounded=0;" parent="1" source="gYdM4bsDaqwmHsJYvP-w-9" edge="1">
          <mxGeometry width="100" height="100" relative="1" as="geometry">
            <mxPoint x="270" y="140" as="sourcePoint" />
            <mxPoint x="430" y="440" as="targetPoint" />
          </mxGeometry>
        </mxCell>
        <mxCell id="gYdM4bsDaqwmHsJYvP-w-16" value="WT" style="shape=table;startSize=30;container=1;collapsible=1;childLayout=tableLayout;fixedRows=1;rowLines=0;fontStyle=1;align=center;resizeLast=1;html=1;" parent="1" vertex="1">
          <mxGeometry x="20" y="851" width="260" height="539" as="geometry" />
        </mxCell>
        <mxCell id="gYdM4bsDaqwmHsJYvP-w-17" value="" style="shape=tableRow;horizontal=0;startSize=0;swimlaneHead=0;swimlaneBody=0;fillColor=none;collapsible=0;dropTarget=0;points=[[0,0.5],[1,0.5]];portConstraint=eastwest;top=0;left=0;right=0;bottom=1;" parent="gYdM4bsDaqwmHsJYvP-w-16" vertex="1">
          <mxGeometry y="30" width="260" height="30" as="geometry" />
        </mxCell>
        <mxCell id="gYdM4bsDaqwmHsJYvP-w-18" value="" style="shape=partialRectangle;connectable=0;fillColor=none;top=0;left=0;bottom=0;right=0;fontStyle=1;overflow=hidden;whiteSpace=wrap;html=1;" parent="gYdM4bsDaqwmHsJYvP-w-17" vertex="1">
          <mxGeometry width="30" height="30" as="geometry">
            <mxRectangle width="30" height="30" as="alternateBounds" />
          </mxGeometry>
        </mxCell>
        <mxCell id="gYdM4bsDaqwmHsJYvP-w-19" value="Name" style="shape=partialRectangle;connectable=0;fillColor=none;top=0;left=0;bottom=0;right=0;align=left;spacingLeft=6;fontStyle=5;overflow=hidden;whiteSpace=wrap;html=1;" parent="gYdM4bsDaqwmHsJYvP-w-17" vertex="1">
          <mxGeometry x="30" width="230" height="30" as="geometry">
            <mxRectangle width="230" height="30" as="alternateBounds" />
          </mxGeometry>
        </mxCell>
        <mxCell id="gYdM4bsDaqwmHsJYvP-w-20" value="" style="shape=tableRow;horizontal=0;startSize=0;swimlaneHead=0;swimlaneBody=0;fillColor=none;collapsible=0;dropTarget=0;points=[[0,0.5],[1,0.5]];portConstraint=eastwest;top=0;left=0;right=0;bottom=0;" parent="gYdM4bsDaqwmHsJYvP-w-16" vertex="1">
          <mxGeometry y="60" width="260" height="21" as="geometry" />
        </mxCell>
        <mxCell id="gYdM4bsDaqwmHsJYvP-w-21" value="" style="shape=partialRectangle;connectable=0;fillColor=none;top=0;left=0;bottom=0;right=0;editable=1;overflow=hidden;whiteSpace=wrap;html=1;" parent="gYdM4bsDaqwmHsJYvP-w-20" vertex="1">
          <mxGeometry width="30" height="21" as="geometry">
            <mxRectangle width="30" height="21" as="alternateBounds" />
          </mxGeometry>
        </mxCell>
        <mxCell id="gYdM4bsDaqwmHsJYvP-w-22" value="" style="shape=partialRectangle;connectable=0;fillColor=none;top=0;left=0;bottom=0;right=0;align=left;spacingLeft=6;overflow=hidden;whiteSpace=wrap;html=1;" parent="gYdM4bsDaqwmHsJYvP-w-20" vertex="1">
          <mxGeometry x="30" width="230" height="21" as="geometry">
            <mxRectangle width="230" height="21" as="alternateBounds" />
          </mxGeometry>
        </mxCell>
        <mxCell id="gYdM4bsDaqwmHsJYvP-w-23" value="" style="shape=tableRow;horizontal=0;startSize=0;swimlaneHead=0;swimlaneBody=0;fillColor=none;collapsible=0;dropTarget=0;points=[[0,0.5],[1,0.5]];portConstraint=eastwest;top=0;left=0;right=0;bottom=0;" parent="gYdM4bsDaqwmHsJYvP-w-16" vertex="1">
          <mxGeometry y="81" width="260" height="30" as="geometry" />
        </mxCell>
        <mxCell id="gYdM4bsDaqwmHsJYvP-w-24" value="" style="shape=partialRectangle;connectable=0;fillColor=none;top=0;left=0;bottom=0;right=0;editable=1;overflow=hidden;whiteSpace=wrap;html=1;" parent="gYdM4bsDaqwmHsJYvP-w-23" vertex="1">
          <mxGeometry width="30" height="30" as="geometry">
            <mxRectangle width="30" height="30" as="alternateBounds" />
          </mxGeometry>
        </mxCell>
        <mxCell id="gYdM4bsDaqwmHsJYvP-w-25" value="" style="shape=partialRectangle;connectable=0;fillColor=none;top=0;left=0;bottom=0;right=0;align=left;spacingLeft=6;overflow=hidden;whiteSpace=wrap;html=1;" parent="gYdM4bsDaqwmHsJYvP-w-23" vertex="1">
          <mxGeometry x="30" width="230" height="30" as="geometry">
            <mxRectangle width="230" height="30" as="alternateBounds" />
          </mxGeometry>
        </mxCell>
        <mxCell id="gYdM4bsDaqwmHsJYvP-w-26" value="" style="shape=tableRow;horizontal=0;startSize=0;swimlaneHead=0;swimlaneBody=0;fillColor=none;collapsible=0;dropTarget=0;points=[[0,0.5],[1,0.5]];portConstraint=eastwest;top=0;left=0;right=0;bottom=0;" parent="gYdM4bsDaqwmHsJYvP-w-16" vertex="1">
          <mxGeometry y="111" width="260" height="30" as="geometry" />
        </mxCell>
        <mxCell id="gYdM4bsDaqwmHsJYvP-w-27" value="" style="shape=partialRectangle;connectable=0;fillColor=none;top=0;left=0;bottom=0;right=0;editable=1;overflow=hidden;whiteSpace=wrap;html=1;" parent="gYdM4bsDaqwmHsJYvP-w-26" vertex="1">
          <mxGeometry width="30" height="30" as="geometry">
            <mxRectangle width="30" height="30" as="alternateBounds" />
          </mxGeometry>
        </mxCell>
        <mxCell id="gYdM4bsDaqwmHsJYvP-w-28" value="" style="shape=partialRectangle;connectable=0;fillColor=none;top=0;left=0;bottom=0;right=0;align=left;spacingLeft=6;overflow=hidden;whiteSpace=wrap;html=1;" parent="gYdM4bsDaqwmHsJYvP-w-26" vertex="1">
          <mxGeometry x="30" width="230" height="30" as="geometry">
            <mxRectangle width="230" height="30" as="alternateBounds" />
          </mxGeometry>
        </mxCell>
        <mxCell id="gYdM4bsDaqwmHsJYvP-w-29" value="FK2" style="text;html=1;align=center;verticalAlign=middle;resizable=0;points=[];autosize=1;strokeColor=none;fillColor=none;" parent="1" vertex="1">
          <mxGeometry x="11" y="765" width="50" height="30" as="geometry" />
        </mxCell>
        <mxCell id="gYdM4bsDaqwmHsJYvP-w-30" value="&lt;p style=&quot;text-align: left;&quot; class=&quot;MsoNormal&quot;&gt;STACKING DATE&lt;/p&gt;&lt;p style=&quot;text-align: left;&quot; class=&quot;MsoNormal&quot;&gt;RAKE NO&lt;/p&gt;&lt;p style=&quot;text-align: left;&quot; class=&quot;MsoNormal&quot;&gt;&lt;span style=&quot;background-color: transparent; color: light-dark(rgb(0, 0, 0), rgb(255, 255, 255));&quot;&gt;SPUR&lt;/span&gt;&lt;/p&gt;&lt;p style=&quot;text-align: left;&quot; class=&quot;MsoNormal&quot;&gt;SUB PILE&lt;/p&gt;&lt;p style=&quot;text-align: left;&quot; class=&quot;MsoNormal&quot;&gt;TOP/BOTTOM&lt;/p&gt;&lt;p style=&quot;text-align: left;&quot; class=&quot;MsoNormal&quot;&gt;ST QNTY&lt;/p&gt;&lt;p style=&quot;text-align: left;&quot; class=&quot;MsoNormal&quot;&gt;GCV&lt;/p&gt;&lt;p style=&quot;text-align: left;&quot; class=&quot;MsoNormal&quot;&gt;RECLIAM DATE&lt;/p&gt;&lt;p style=&quot;text-align: left;&quot; class=&quot;MsoNormal&quot;&gt;RC-QNTY&lt;/p&gt;&lt;p style=&quot;text-align: left;&quot; class=&quot;MsoNormal&quot;&gt;AVAILABLE QUANTITY&lt;/p&gt;&lt;p style=&quot;text-align: left;&quot; class=&quot;MsoNormal&quot;&gt;AGING  TOP GCV&lt;/p&gt;&lt;p style=&quot;text-align: left;&quot; class=&quot;MsoNormal&quot;&gt;TOP QNTY&lt;/p&gt;&lt;p style=&quot;text-align: left;&quot; class=&quot;MsoNormal&quot;&gt;BTM GCV&lt;/p&gt;&lt;p style=&quot;text-align: left;&quot; class=&quot;MsoNormal&quot;&gt;BTM QNTY&lt;/p&gt;&lt;p style=&quot;text-align: left;&quot; class=&quot;MsoNormal&quot;&gt;coal above 3200&lt;/p&gt;&lt;p style=&quot;text-align: left;&quot; class=&quot;MsoNormal&quot;&gt;2900-3200&lt;/p&gt;&lt;p style=&quot;text-align: left;&quot; class=&quot;MsoNormal&quot;&gt;&amp;lt;2900&lt;/p&gt;" style="text;html=1;align=center;verticalAlign=middle;whiteSpace=wrap;rounded=0;" parent="1" vertex="1">
          <mxGeometry x="47" y="910" width="155" height="510" as="geometry" />
        </mxCell>
        <mxCell id="gYdM4bsDaqwmHsJYvP-w-33" value="Piles" style="shape=table;startSize=30;container=1;collapsible=1;childLayout=tableLayout;fixedRows=1;rowLines=0;fontStyle=1;align=center;resizeLast=1;html=1;" parent="1" vertex="1">
          <mxGeometry x="830" y="666" width="180" height="154" as="geometry" />
        </mxCell>
        <mxCell id="gYdM4bsDaqwmHsJYvP-w-34" value="" style="shape=tableRow;horizontal=0;startSize=0;swimlaneHead=0;swimlaneBody=0;fillColor=none;collapsible=0;dropTarget=0;points=[[0,0.5],[1,0.5]];portConstraint=eastwest;top=0;left=0;right=0;bottom=1;" parent="gYdM4bsDaqwmHsJYvP-w-33" vertex="1">
          <mxGeometry y="30" width="180" height="30" as="geometry" />
        </mxCell>
        <mxCell id="gYdM4bsDaqwmHsJYvP-w-35" value="" style="shape=partialRectangle;connectable=0;fillColor=none;top=0;left=0;bottom=0;right=0;fontStyle=1;overflow=hidden;whiteSpace=wrap;html=1;" parent="gYdM4bsDaqwmHsJYvP-w-34" vertex="1">
          <mxGeometry width="30" height="30" as="geometry">
            <mxRectangle width="30" height="30" as="alternateBounds" />
          </mxGeometry>
        </mxCell>
        <mxCell id="gYdM4bsDaqwmHsJYvP-w-36" value="Names" style="shape=partialRectangle;connectable=0;fillColor=none;top=0;left=0;bottom=0;right=0;align=left;spacingLeft=6;fontStyle=5;overflow=hidden;whiteSpace=wrap;html=1;" parent="gYdM4bsDaqwmHsJYvP-w-34" vertex="1">
          <mxGeometry x="30" width="150" height="30" as="geometry">
            <mxRectangle width="150" height="30" as="alternateBounds" />
          </mxGeometry>
        </mxCell>
        <mxCell id="gYdM4bsDaqwmHsJYvP-w-37" value="" style="shape=tableRow;horizontal=0;startSize=0;swimlaneHead=0;swimlaneBody=0;fillColor=none;collapsible=0;dropTarget=0;points=[[0,0.5],[1,0.5]];portConstraint=eastwest;top=0;left=0;right=0;bottom=0;" parent="gYdM4bsDaqwmHsJYvP-w-33" vertex="1">
          <mxGeometry y="60" width="180" height="30" as="geometry" />
        </mxCell>
        <mxCell id="gYdM4bsDaqwmHsJYvP-w-38" value="PK" style="shape=partialRectangle;connectable=0;fillColor=none;top=0;left=0;bottom=0;right=0;editable=1;overflow=hidden;whiteSpace=wrap;html=1;" parent="gYdM4bsDaqwmHsJYvP-w-37" vertex="1">
          <mxGeometry width="30" height="30" as="geometry">
            <mxRectangle width="30" height="30" as="alternateBounds" />
          </mxGeometry>
        </mxCell>
        <mxCell id="gYdM4bsDaqwmHsJYvP-w-39" value="Sl.No" style="shape=partialRectangle;connectable=0;fillColor=none;top=0;left=0;bottom=0;right=0;align=left;spacingLeft=6;overflow=hidden;whiteSpace=wrap;html=1;" parent="gYdM4bsDaqwmHsJYvP-w-37" vertex="1">
          <mxGeometry x="30" width="150" height="30" as="geometry">
            <mxRectangle width="150" height="30" as="alternateBounds" />
          </mxGeometry>
        </mxCell>
        <mxCell id="gYdM4bsDaqwmHsJYvP-w-40" value="" style="shape=tableRow;horizontal=0;startSize=0;swimlaneHead=0;swimlaneBody=0;fillColor=none;collapsible=0;dropTarget=0;points=[[0,0.5],[1,0.5]];portConstraint=eastwest;top=0;left=0;right=0;bottom=0;" parent="gYdM4bsDaqwmHsJYvP-w-33" vertex="1">
          <mxGeometry y="90" width="180" height="33" as="geometry" />
        </mxCell>
        <mxCell id="gYdM4bsDaqwmHsJYvP-w-41" value="" style="shape=partialRectangle;connectable=0;fillColor=none;top=0;left=0;bottom=0;right=0;editable=1;overflow=hidden;whiteSpace=wrap;html=1;" parent="gYdM4bsDaqwmHsJYvP-w-40" vertex="1">
          <mxGeometry width="30" height="33" as="geometry">
            <mxRectangle width="30" height="33" as="alternateBounds" />
          </mxGeometry>
        </mxCell>
        <mxCell id="gYdM4bsDaqwmHsJYvP-w-42" value="Pile id" style="shape=partialRectangle;connectable=0;fillColor=none;top=0;left=0;bottom=0;right=0;align=left;spacingLeft=6;overflow=hidden;whiteSpace=wrap;html=1;" parent="gYdM4bsDaqwmHsJYvP-w-40" vertex="1">
          <mxGeometry x="30" width="150" height="33" as="geometry">
            <mxRectangle width="150" height="33" as="alternateBounds" />
          </mxGeometry>
        </mxCell>
        <mxCell id="gYdM4bsDaqwmHsJYvP-w-43" value="" style="shape=tableRow;horizontal=0;startSize=0;swimlaneHead=0;swimlaneBody=0;fillColor=none;collapsible=0;dropTarget=0;points=[[0,0.5],[1,0.5]];portConstraint=eastwest;top=0;left=0;right=0;bottom=0;" parent="gYdM4bsDaqwmHsJYvP-w-33" vertex="1">
          <mxGeometry y="123" width="180" height="30" as="geometry" />
        </mxCell>
        <mxCell id="gYdM4bsDaqwmHsJYvP-w-44" value="" style="shape=partialRectangle;connectable=0;fillColor=none;top=0;left=0;bottom=0;right=0;editable=1;overflow=hidden;whiteSpace=wrap;html=1;" parent="gYdM4bsDaqwmHsJYvP-w-43" vertex="1">
          <mxGeometry width="30" height="30" as="geometry">
            <mxRectangle width="30" height="30" as="alternateBounds" />
          </mxGeometry>
        </mxCell>
        <mxCell id="gYdM4bsDaqwmHsJYvP-w-45" value="&lt;span style=&quot;color: rgb(0, 0, 0); background-color: rgb(251, 251, 251); float: none; display: inline !important;&quot;&gt;Pile Name&lt;/span&gt;" style="shape=partialRectangle;connectable=0;fillColor=none;top=0;left=0;bottom=0;right=0;align=left;spacingLeft=6;overflow=hidden;whiteSpace=wrap;html=1;" parent="gYdM4bsDaqwmHsJYvP-w-43" vertex="1">
          <mxGeometry x="30" width="150" height="30" as="geometry">
            <mxRectangle width="150" height="30" as="alternateBounds" />
          </mxGeometry>
        </mxCell>
        <mxCell id="_dtVbm7WVHYgLpaVK0QW-51" value="" style="endArrow=none;html=1;rounded=0;entryX=0.57;entryY=0.106;entryDx=0;entryDy=0;entryPerimeter=0;exitX=0.575;exitY=1.17;exitDx=0;exitDy=0;exitPerimeter=0;" parent="gYdM4bsDaqwmHsJYvP-w-33" edge="1">
          <mxGeometry width="50" height="50" relative="1" as="geometry">
            <mxPoint x="103.5" y="151.0999999999999" as="sourcePoint" />
            <mxPoint x="102.59999999999991" y="29.180000000000064" as="targetPoint" />
          </mxGeometry>
        </mxCell>
        <mxCell id="gYdM4bsDaqwmHsJYvP-w-46" value="" style="edgeStyle=entityRelationEdgeStyle;fontSize=12;html=1;endArrow=ERmandOne;startArrow=ERmandOne;rounded=0;entryX=0;entryY=0.5;entryDx=0;entryDy=0;" parent="1" target="gYdM4bsDaqwmHsJYvP-w-34" edge="1">
          <mxGeometry width="100" height="100" relative="1" as="geometry">
            <mxPoint x="730" y="840" as="sourcePoint" />
            <mxPoint x="830" y="735" as="targetPoint" />
          </mxGeometry>
        </mxCell>
        <mxCell id="gYdM4bsDaqwmHsJYvP-w-47" value="Spur Wise Stacking" style="shape=table;startSize=30;container=1;collapsible=1;childLayout=tableLayout;fixedRows=1;rowLines=0;fontStyle=1;align=center;resizeLast=1;html=1;" parent="1" vertex="1">
          <mxGeometry x="800" y="879" width="210" height="172" as="geometry" />
        </mxCell>
        <mxCell id="gYdM4bsDaqwmHsJYvP-w-48" value="" style="shape=tableRow;horizontal=0;startSize=0;swimlaneHead=0;swimlaneBody=0;fillColor=none;collapsible=0;dropTarget=0;points=[[0,0.5],[1,0.5]];portConstraint=eastwest;top=0;left=0;right=0;bottom=1;" parent="gYdM4bsDaqwmHsJYvP-w-47" vertex="1">
          <mxGeometry y="30" width="210" height="30" as="geometry" />
        </mxCell>
        <mxCell id="gYdM4bsDaqwmHsJYvP-w-49" value="" style="shape=partialRectangle;connectable=0;fillColor=none;top=0;left=0;bottom=0;right=0;fontStyle=1;overflow=hidden;whiteSpace=wrap;html=1;" parent="gYdM4bsDaqwmHsJYvP-w-48" vertex="1">
          <mxGeometry width="30" height="30" as="geometry">
            <mxRectangle width="30" height="30" as="alternateBounds" />
          </mxGeometry>
        </mxCell>
        <mxCell id="gYdM4bsDaqwmHsJYvP-w-50" value="Names" style="shape=partialRectangle;connectable=0;fillColor=none;top=0;left=0;bottom=0;right=0;align=left;spacingLeft=6;fontStyle=5;overflow=hidden;whiteSpace=wrap;html=1;" parent="gYdM4bsDaqwmHsJYvP-w-48" vertex="1">
          <mxGeometry x="30" width="180" height="30" as="geometry">
            <mxRectangle width="180" height="30" as="alternateBounds" />
          </mxGeometry>
        </mxCell>
        <mxCell id="gYdM4bsDaqwmHsJYvP-w-51" value="" style="shape=tableRow;horizontal=0;startSize=0;swimlaneHead=0;swimlaneBody=0;fillColor=none;collapsible=0;dropTarget=0;points=[[0,0.5],[1,0.5]];portConstraint=eastwest;top=0;left=0;right=0;bottom=0;" parent="gYdM4bsDaqwmHsJYvP-w-47" vertex="1">
          <mxGeometry y="60" width="210" height="30" as="geometry" />
        </mxCell>
        <mxCell id="gYdM4bsDaqwmHsJYvP-w-52" value="PK" style="shape=partialRectangle;connectable=0;fillColor=none;top=0;left=0;bottom=0;right=0;editable=1;overflow=hidden;whiteSpace=wrap;html=1;" parent="gYdM4bsDaqwmHsJYvP-w-51" vertex="1">
          <mxGeometry width="30" height="30" as="geometry">
            <mxRectangle width="30" height="30" as="alternateBounds" />
          </mxGeometry>
        </mxCell>
        <mxCell id="gYdM4bsDaqwmHsJYvP-w-53" value="&lt;span style=&quot;color: rgb(0, 0, 0); font-family: Helvetica; font-size: 12px; font-style: normal; font-variant-ligatures: normal; font-variant-caps: normal; letter-spacing: normal; orphans: 2; text-align: left; text-indent: 0px; text-transform: none; widows: 2; word-spacing: 0px; -webkit-text-stroke-width: 0px; white-space: normal; background-color: rgb(251, 251, 251); float: none; display: inline !important;&quot;&gt;Pile ID&lt;/span&gt;" style="shape=partialRectangle;connectable=0;fillColor=none;top=0;left=0;bottom=0;right=0;align=left;spacingLeft=6;overflow=hidden;whiteSpace=wrap;html=1;" parent="gYdM4bsDaqwmHsJYvP-w-51" vertex="1">
          <mxGeometry x="30" width="180" height="30" as="geometry">
            <mxRectangle width="180" height="30" as="alternateBounds" />
          </mxGeometry>
        </mxCell>
        <mxCell id="gYdM4bsDaqwmHsJYvP-w-54" value="" style="shape=tableRow;horizontal=0;startSize=0;swimlaneHead=0;swimlaneBody=0;fillColor=none;collapsible=0;dropTarget=0;points=[[0,0.5],[1,0.5]];portConstraint=eastwest;top=0;left=0;right=0;bottom=0;" parent="gYdM4bsDaqwmHsJYvP-w-47" vertex="1">
          <mxGeometry y="90" width="210" height="21" as="geometry" />
        </mxCell>
        <mxCell id="gYdM4bsDaqwmHsJYvP-w-55" value="" style="shape=partialRectangle;connectable=0;fillColor=none;top=0;left=0;bottom=0;right=0;editable=1;overflow=hidden;whiteSpace=wrap;html=1;" parent="gYdM4bsDaqwmHsJYvP-w-54" vertex="1">
          <mxGeometry width="30" height="21" as="geometry">
            <mxRectangle width="30" height="21" as="alternateBounds" />
          </mxGeometry>
        </mxCell>
        <mxCell id="gYdM4bsDaqwmHsJYvP-w-56" value="&lt;span style=&quot;color: rgb(0, 0, 0); font-family: Helvetica; font-size: 12px; font-style: normal; font-variant-ligatures: normal; font-variant-caps: normal; font-weight: 400; letter-spacing: normal; orphans: 2; text-align: left; text-indent: 0px; text-transform: none; widows: 2; word-spacing: 0px; -webkit-text-stroke-width: 0px; white-space: normal; background-color: rgb(251, 251, 251); text-decoration-thickness: initial; text-decoration-style: initial; text-decoration-color: initial; float: none; display: inline !important;&quot;&gt;Spur ID&lt;/span&gt;" style="shape=partialRectangle;connectable=0;fillColor=none;top=0;left=0;bottom=0;right=0;align=left;spacingLeft=6;overflow=hidden;whiteSpace=wrap;html=1;" parent="gYdM4bsDaqwmHsJYvP-w-54" vertex="1">
          <mxGeometry x="30" width="180" height="21" as="geometry">
            <mxRectangle width="180" height="21" as="alternateBounds" />
          </mxGeometry>
        </mxCell>
        <mxCell id="gYdM4bsDaqwmHsJYvP-w-57" value="" style="shape=tableRow;horizontal=0;startSize=0;swimlaneHead=0;swimlaneBody=0;fillColor=none;collapsible=0;dropTarget=0;points=[[0,0.5],[1,0.5]];portConstraint=eastwest;top=0;left=0;right=0;bottom=0;" parent="gYdM4bsDaqwmHsJYvP-w-47" vertex="1">
          <mxGeometry y="111" width="210" height="30" as="geometry" />
        </mxCell>
        <mxCell id="gYdM4bsDaqwmHsJYvP-w-58" value="" style="shape=partialRectangle;connectable=0;fillColor=none;top=0;left=0;bottom=0;right=0;editable=1;overflow=hidden;whiteSpace=wrap;html=1;" parent="gYdM4bsDaqwmHsJYvP-w-57" vertex="1">
          <mxGeometry width="30" height="30" as="geometry">
            <mxRectangle width="30" height="30" as="alternateBounds" />
          </mxGeometry>
        </mxCell>
        <mxCell id="gYdM4bsDaqwmHsJYvP-w-59" value="Spur Name" style="shape=partialRectangle;connectable=0;fillColor=none;top=0;left=0;bottom=0;right=0;align=left;spacingLeft=6;overflow=hidden;whiteSpace=wrap;html=1;" parent="gYdM4bsDaqwmHsJYvP-w-57" vertex="1">
          <mxGeometry x="30" width="180" height="30" as="geometry">
            <mxRectangle width="180" height="30" as="alternateBounds" />
          </mxGeometry>
        </mxCell>
        <mxCell id="gYdM4bsDaqwmHsJYvP-w-73" value="" style="edgeStyle=entityRelationEdgeStyle;fontSize=12;html=1;endArrow=ERmandOne;startArrow=ERmandOne;rounded=0;entryX=1;entryY=0.5;entryDx=0;entryDy=0;exitX=1;exitY=0.5;exitDx=0;exitDy=0;" parent="1" source="gYdM4bsDaqwmHsJYvP-w-48" target="gYdM4bsDaqwmHsJYvP-w-34" edge="1">
          <mxGeometry width="100" height="100" relative="1" as="geometry">
            <mxPoint x="1050" y="900" as="sourcePoint" />
            <mxPoint x="1150" y="800" as="targetPoint" />
          </mxGeometry>
        </mxCell>
        <mxCell id="gYdM4bsDaqwmHsJYvP-w-74" value="" style="edgeStyle=entityRelationEdgeStyle;fontSize=12;html=1;endArrow=ERoneToMany;rounded=0;exitX=1;exitY=0.5;exitDx=0;exitDy=0;" parent="1" source="C-vyLk0tnHw3VtMMgP7b-24" edge="1">
          <mxGeometry width="100" height="100" relative="1" as="geometry">
            <mxPoint x="350" y="1320" as="sourcePoint" />
            <mxPoint x="440" y="840" as="targetPoint" />
            <Array as="points">
              <mxPoint x="-80" y="1410" />
            </Array>
          </mxGeometry>
        </mxCell>
        <mxCell id="gYdM4bsDaqwmHsJYvP-w-75" value="Last Coal Rake GCV" style="shape=table;startSize=34;container=1;collapsible=1;childLayout=tableLayout;fixedRows=1;rowLines=0;fontStyle=1;align=center;resizeLast=1;html=1;" parent="1" vertex="1">
          <mxGeometry x="897" y="276" width="230" height="165.9999999999999" as="geometry">
            <mxRectangle x="897" y="276" width="150" height="30" as="alternateBounds" />
          </mxGeometry>
        </mxCell>
        <mxCell id="gYdM4bsDaqwmHsJYvP-w-76" value="" style="shape=tableRow;horizontal=0;startSize=0;swimlaneHead=0;swimlaneBody=0;fillColor=none;collapsible=0;dropTarget=0;points=[[0,0.5],[1,0.5]];portConstraint=eastwest;top=0;left=0;right=0;bottom=1;" parent="gYdM4bsDaqwmHsJYvP-w-75" vertex="1">
          <mxGeometry y="34" width="230" height="20" as="geometry" />
        </mxCell>
        <mxCell id="gYdM4bsDaqwmHsJYvP-w-77" value="" style="shape=partialRectangle;connectable=0;fillColor=none;top=0;left=0;bottom=0;right=0;fontStyle=1;overflow=hidden;whiteSpace=wrap;html=1;" parent="gYdM4bsDaqwmHsJYvP-w-76" vertex="1">
          <mxGeometry width="30" height="20" as="geometry">
            <mxRectangle width="30" height="20" as="alternateBounds" />
          </mxGeometry>
        </mxCell>
        <mxCell id="gYdM4bsDaqwmHsJYvP-w-78" value="&lt;div&gt;&lt;span style=&quot;background-color: light-dark(rgb(251, 251, 251), rgb(21, 21, 21)); color: light-dark(rgb(0, 0, 0), rgb(237, 237, 237)); text-wrap-mode: nowrap;&quot;&gt;Name&lt;/span&gt;&lt;/div&gt;&lt;div&gt;&lt;br&gt;&lt;/div&gt;" style="shape=partialRectangle;connectable=0;fillColor=none;top=0;left=0;bottom=0;right=0;align=left;spacingLeft=6;fontStyle=5;overflow=hidden;whiteSpace=wrap;html=1;" parent="gYdM4bsDaqwmHsJYvP-w-76" vertex="1">
          <mxGeometry x="30" width="200" height="20" as="geometry">
            <mxRectangle width="200" height="20" as="alternateBounds" />
          </mxGeometry>
        </mxCell>
        <mxCell id="gYdM4bsDaqwmHsJYvP-w-79" value="" style="shape=tableRow;horizontal=0;startSize=0;swimlaneHead=0;swimlaneBody=0;fillColor=none;collapsible=0;dropTarget=0;points=[[0,0.5],[1,0.5]];portConstraint=eastwest;top=0;left=0;right=0;bottom=0;" parent="gYdM4bsDaqwmHsJYvP-w-75" vertex="1">
          <mxGeometry y="54" width="230" height="28" as="geometry" />
        </mxCell>
        <mxCell id="gYdM4bsDaqwmHsJYvP-w-80" value="PK" style="shape=partialRectangle;connectable=0;fillColor=none;top=0;left=0;bottom=0;right=0;editable=1;overflow=hidden;whiteSpace=wrap;html=1;" parent="gYdM4bsDaqwmHsJYvP-w-79" vertex="1">
          <mxGeometry width="30" height="28" as="geometry">
            <mxRectangle width="30" height="28" as="alternateBounds" />
          </mxGeometry>
        </mxCell>
        <mxCell id="gYdM4bsDaqwmHsJYvP-w-81" value="SL NO" style="shape=partialRectangle;connectable=0;fillColor=none;top=0;left=0;bottom=0;right=0;align=left;spacingLeft=6;overflow=hidden;whiteSpace=wrap;html=1;" parent="gYdM4bsDaqwmHsJYvP-w-79" vertex="1">
          <mxGeometry x="30" width="200" height="28" as="geometry">
            <mxRectangle width="200" height="28" as="alternateBounds" />
          </mxGeometry>
        </mxCell>
        <mxCell id="gYdM4bsDaqwmHsJYvP-w-82" value="" style="shape=tableRow;horizontal=0;startSize=0;swimlaneHead=0;swimlaneBody=0;fillColor=none;collapsible=0;dropTarget=0;points=[[0,0.5],[1,0.5]];portConstraint=eastwest;top=0;left=0;right=0;bottom=0;" parent="gYdM4bsDaqwmHsJYvP-w-75" vertex="1">
          <mxGeometry y="82" width="230" height="30" as="geometry" />
        </mxCell>
        <mxCell id="gYdM4bsDaqwmHsJYvP-w-83" value="" style="shape=partialRectangle;connectable=0;fillColor=none;top=0;left=0;bottom=0;right=0;editable=1;overflow=hidden;whiteSpace=wrap;html=1;" parent="gYdM4bsDaqwmHsJYvP-w-82" vertex="1">
          <mxGeometry width="30" height="30" as="geometry">
            <mxRectangle width="30" height="30" as="alternateBounds" />
          </mxGeometry>
        </mxCell>
        <mxCell id="gYdM4bsDaqwmHsJYvP-w-84" value="SPUR ID" style="shape=partialRectangle;connectable=0;fillColor=none;top=0;left=0;bottom=0;right=0;align=left;spacingLeft=6;overflow=hidden;whiteSpace=wrap;html=1;" parent="gYdM4bsDaqwmHsJYvP-w-82" vertex="1">
          <mxGeometry x="30" width="200" height="30" as="geometry">
            <mxRectangle width="200" height="30" as="alternateBounds" />
          </mxGeometry>
        </mxCell>
        <mxCell id="gYdM4bsDaqwmHsJYvP-w-85" value="" style="shape=tableRow;horizontal=0;startSize=0;swimlaneHead=0;swimlaneBody=0;fillColor=none;collapsible=0;dropTarget=0;points=[[0,0.5],[1,0.5]];portConstraint=eastwest;top=0;left=0;right=0;bottom=0;" parent="gYdM4bsDaqwmHsJYvP-w-75" vertex="1">
          <mxGeometry y="112" width="230" height="30" as="geometry" />
        </mxCell>
        <mxCell id="gYdM4bsDaqwmHsJYvP-w-86" value="" style="shape=partialRectangle;connectable=0;fillColor=none;top=0;left=0;bottom=0;right=0;editable=1;overflow=hidden;whiteSpace=wrap;html=1;" parent="gYdM4bsDaqwmHsJYvP-w-85" vertex="1">
          <mxGeometry width="30" height="30" as="geometry">
            <mxRectangle width="30" height="30" as="alternateBounds" />
          </mxGeometry>
        </mxCell>
        <mxCell id="gYdM4bsDaqwmHsJYvP-w-87" value="&lt;span style=&quot;color: rgb(0, 0, 0); font-family: Helvetica; font-size: 12px; font-style: normal; font-variant-ligatures: normal; font-variant-caps: normal; font-weight: 400; letter-spacing: normal; orphans: 2; text-indent: 0px; text-transform: none; widows: 2; word-spacing: 0px; -webkit-text-stroke-width: 0px; white-space: normal; background-color: rgb(251, 251, 251); text-decoration-thickness: initial; text-decoration-style: initial; text-decoration-color: initial; float: none; display: inline !important;&quot;&gt;No. of Rake&lt;/span&gt;" style="shape=partialRectangle;connectable=0;fillColor=none;top=0;left=0;bottom=0;right=0;align=left;spacingLeft=6;overflow=hidden;whiteSpace=wrap;html=1;" parent="gYdM4bsDaqwmHsJYvP-w-85" vertex="1">
          <mxGeometry x="30" width="200" height="30" as="geometry">
            <mxRectangle width="200" height="30" as="alternateBounds" />
          </mxGeometry>
        </mxCell>
        <mxCell id="_dtVbm7WVHYgLpaVK0QW-44" value="" style="endArrow=none;html=1;rounded=0;entryX=0.531;entryY=0.006;entryDx=0;entryDy=0;entryPerimeter=0;" parent="gYdM4bsDaqwmHsJYvP-w-75" target="gYdM4bsDaqwmHsJYvP-w-76" edge="1">
          <mxGeometry width="50" height="50" relative="1" as="geometry">
            <mxPoint x="122" y="173" as="sourcePoint" />
            <mxPoint x="233" y="183" as="targetPoint" />
          </mxGeometry>
        </mxCell>
        <mxCell id="gYdM4bsDaqwmHsJYvP-w-102" value="SPUR" style="shape=table;startSize=30;container=1;collapsible=1;childLayout=tableLayout;fixedRows=1;rowLines=0;fontStyle=1;align=center;resizeLast=1;html=1;" parent="1" vertex="1">
          <mxGeometry x="1120" y="711" width="180" height="149" as="geometry" />
        </mxCell>
        <mxCell id="gYdM4bsDaqwmHsJYvP-w-103" value="" style="shape=tableRow;horizontal=0;startSize=0;swimlaneHead=0;swimlaneBody=0;fillColor=none;collapsible=0;dropTarget=0;points=[[0,0.5],[1,0.5]];portConstraint=eastwest;top=0;left=0;right=0;bottom=1;" parent="gYdM4bsDaqwmHsJYvP-w-102" vertex="1">
          <mxGeometry y="30" width="180" height="29" as="geometry" />
        </mxCell>
        <mxCell id="gYdM4bsDaqwmHsJYvP-w-104" value="" style="shape=partialRectangle;connectable=0;fillColor=none;top=0;left=0;bottom=0;right=0;fontStyle=1;overflow=hidden;whiteSpace=wrap;html=1;" parent="gYdM4bsDaqwmHsJYvP-w-103" vertex="1">
          <mxGeometry width="30" height="29" as="geometry">
            <mxRectangle width="30" height="29" as="alternateBounds" />
          </mxGeometry>
        </mxCell>
        <mxCell id="gYdM4bsDaqwmHsJYvP-w-105" value="&lt;span style=&quot;color: rgb(0, 0, 0); font-family: Helvetica; font-size: 12px; font-style: normal; font-variant-ligatures: normal; font-variant-caps: normal; font-weight: 700; letter-spacing: normal; orphans: 2; text-align: left; text-indent: 0px; text-transform: none; widows: 2; word-spacing: 0px; -webkit-text-stroke-width: 0px; white-space: normal; background-color: rgb(251, 251, 251); text-decoration: underline; float: none; display: inline !important;&quot;&gt;Names&lt;/span&gt;" style="shape=partialRectangle;connectable=0;fillColor=none;top=0;left=0;bottom=0;right=0;align=left;spacingLeft=6;fontStyle=5;overflow=hidden;whiteSpace=wrap;html=1;" parent="gYdM4bsDaqwmHsJYvP-w-103" vertex="1">
          <mxGeometry x="30" width="150" height="29" as="geometry">
            <mxRectangle width="150" height="29" as="alternateBounds" />
          </mxGeometry>
        </mxCell>
        <mxCell id="gYdM4bsDaqwmHsJYvP-w-106" value="" style="shape=tableRow;horizontal=0;startSize=0;swimlaneHead=0;swimlaneBody=0;fillColor=none;collapsible=0;dropTarget=0;points=[[0,0.5],[1,0.5]];portConstraint=eastwest;top=0;left=0;right=0;bottom=0;" parent="gYdM4bsDaqwmHsJYvP-w-102" vertex="1">
          <mxGeometry y="59" width="180" height="30" as="geometry" />
        </mxCell>
        <mxCell id="gYdM4bsDaqwmHsJYvP-w-107" value="PK" style="shape=partialRectangle;connectable=0;fillColor=none;top=0;left=0;bottom=0;right=0;editable=1;overflow=hidden;whiteSpace=wrap;html=1;" parent="gYdM4bsDaqwmHsJYvP-w-106" vertex="1">
          <mxGeometry width="30" height="30" as="geometry">
            <mxRectangle width="30" height="30" as="alternateBounds" />
          </mxGeometry>
        </mxCell>
        <mxCell id="gYdM4bsDaqwmHsJYvP-w-108" value="Sl.No" style="shape=partialRectangle;connectable=0;fillColor=none;top=0;left=0;bottom=0;right=0;align=left;spacingLeft=6;overflow=hidden;whiteSpace=wrap;html=1;" parent="gYdM4bsDaqwmHsJYvP-w-106" vertex="1">
          <mxGeometry x="30" width="150" height="30" as="geometry">
            <mxRectangle width="150" height="30" as="alternateBounds" />
          </mxGeometry>
        </mxCell>
        <mxCell id="gYdM4bsDaqwmHsJYvP-w-109" value="" style="shape=tableRow;horizontal=0;startSize=0;swimlaneHead=0;swimlaneBody=0;fillColor=none;collapsible=0;dropTarget=0;points=[[0,0.5],[1,0.5]];portConstraint=eastwest;top=0;left=0;right=0;bottom=0;" parent="gYdM4bsDaqwmHsJYvP-w-102" vertex="1">
          <mxGeometry y="89" width="180" height="30" as="geometry" />
        </mxCell>
        <mxCell id="gYdM4bsDaqwmHsJYvP-w-110" value="" style="shape=partialRectangle;connectable=0;fillColor=none;top=0;left=0;bottom=0;right=0;editable=1;overflow=hidden;whiteSpace=wrap;html=1;" parent="gYdM4bsDaqwmHsJYvP-w-109" vertex="1">
          <mxGeometry width="30" height="30" as="geometry">
            <mxRectangle width="30" height="30" as="alternateBounds" />
          </mxGeometry>
        </mxCell>
        <mxCell id="gYdM4bsDaqwmHsJYvP-w-111" value="Spur ID" style="shape=partialRectangle;connectable=0;fillColor=none;top=0;left=0;bottom=0;right=0;align=left;spacingLeft=6;overflow=hidden;whiteSpace=wrap;html=1;" parent="gYdM4bsDaqwmHsJYvP-w-109" vertex="1">
          <mxGeometry x="30" width="150" height="30" as="geometry">
            <mxRectangle width="150" height="30" as="alternateBounds" />
          </mxGeometry>
        </mxCell>
        <mxCell id="gYdM4bsDaqwmHsJYvP-w-112" value="" style="shape=tableRow;horizontal=0;startSize=0;swimlaneHead=0;swimlaneBody=0;fillColor=none;collapsible=0;dropTarget=0;points=[[0,0.5],[1,0.5]];portConstraint=eastwest;top=0;left=0;right=0;bottom=0;" parent="gYdM4bsDaqwmHsJYvP-w-102" vertex="1">
          <mxGeometry y="119" width="180" height="30" as="geometry" />
        </mxCell>
        <mxCell id="gYdM4bsDaqwmHsJYvP-w-113" value="" style="shape=partialRectangle;connectable=0;fillColor=none;top=0;left=0;bottom=0;right=0;editable=1;overflow=hidden;whiteSpace=wrap;html=1;" parent="gYdM4bsDaqwmHsJYvP-w-112" vertex="1">
          <mxGeometry width="30" height="30" as="geometry">
            <mxRectangle width="30" height="30" as="alternateBounds" />
          </mxGeometry>
        </mxCell>
        <mxCell id="gYdM4bsDaqwmHsJYvP-w-114" value="Spur name" style="shape=partialRectangle;connectable=0;fillColor=none;top=0;left=0;bottom=0;right=0;align=left;spacingLeft=6;overflow=hidden;whiteSpace=wrap;html=1;" parent="gYdM4bsDaqwmHsJYvP-w-112" vertex="1">
          <mxGeometry x="30" width="150" height="30" as="geometry">
            <mxRectangle width="150" height="30" as="alternateBounds" />
          </mxGeometry>
        </mxCell>
        <mxCell id="_dtVbm7WVHYgLpaVK0QW-60" value="" style="endArrow=none;html=1;rounded=0;entryX=0.578;entryY=0.103;entryDx=0;entryDy=0;entryPerimeter=0;exitX=0.578;exitY=1.038;exitDx=0;exitDy=0;exitPerimeter=0;" parent="gYdM4bsDaqwmHsJYvP-w-102" source="gYdM4bsDaqwmHsJYvP-w-112" target="gYdM4bsDaqwmHsJYvP-w-103" edge="1">
          <mxGeometry width="50" height="50" relative="1" as="geometry">
            <mxPoint x="20" y="259" as="sourcePoint" />
            <mxPoint x="70" y="209" as="targetPoint" />
          </mxGeometry>
        </mxCell>
        <mxCell id="gYdM4bsDaqwmHsJYvP-w-115" value="" style="edgeStyle=entityRelationEdgeStyle;fontSize=12;html=1;endArrow=ERmandOne;startArrow=ERmandOne;rounded=0;entryX=0;entryY=0.5;entryDx=0;entryDy=0;exitX=1;exitY=0.5;exitDx=0;exitDy=0;" parent="1" source="gYdM4bsDaqwmHsJYvP-w-51" target="gYdM4bsDaqwmHsJYvP-w-103" edge="1">
          <mxGeometry width="100" height="100" relative="1" as="geometry">
            <mxPoint x="1040" y="1010" as="sourcePoint" />
            <mxPoint x="1140" y="910" as="targetPoint" />
          </mxGeometry>
        </mxCell>
        <mxCell id="gYdM4bsDaqwmHsJYvP-w-120" value="" style="edgeStyle=entityRelationEdgeStyle;fontSize=12;html=1;endArrow=ERmany;startArrow=ERmany;rounded=0;entryX=1;entryY=0.5;entryDx=0;entryDy=0;" parent="1" target="gYdM4bsDaqwmHsJYvP-w-85" edge="1">
          <mxGeometry width="100" height="100" relative="1" as="geometry">
            <mxPoint x="1299" y="790" as="sourcePoint" />
            <mxPoint x="1399" y="671" as="targetPoint" />
          </mxGeometry>
        </mxCell>
        <mxCell id="gYdM4bsDaqwmHsJYvP-w-121" value="Rake GCV" style="shape=table;startSize=30;container=1;collapsible=1;childLayout=tableLayout;fixedRows=1;rowLines=0;fontStyle=1;align=center;resizeLast=1;html=1;" parent="1" vertex="1">
          <mxGeometry x="1445" y="247" width="288" height="258" as="geometry" />
        </mxCell>
        <mxCell id="gYdM4bsDaqwmHsJYvP-w-122" value="" style="shape=tableRow;horizontal=0;startSize=0;swimlaneHead=0;swimlaneBody=0;fillColor=none;collapsible=0;dropTarget=0;points=[[0,0.5],[1,0.5]];portConstraint=eastwest;top=0;left=0;right=0;bottom=1;" parent="gYdM4bsDaqwmHsJYvP-w-121" vertex="1">
          <mxGeometry y="30" width="288" height="30" as="geometry" />
        </mxCell>
        <mxCell id="gYdM4bsDaqwmHsJYvP-w-123" value="" style="shape=partialRectangle;connectable=0;fillColor=none;top=0;left=0;bottom=0;right=0;fontStyle=1;overflow=hidden;whiteSpace=wrap;html=1;" parent="gYdM4bsDaqwmHsJYvP-w-122" vertex="1">
          <mxGeometry width="30" height="30" as="geometry">
            <mxRectangle width="30" height="30" as="alternateBounds" />
          </mxGeometry>
        </mxCell>
        <mxCell id="gYdM4bsDaqwmHsJYvP-w-124" value="&lt;div&gt;&lt;span style=&quot;background-color: light-dark(rgb(251, 251, 251), rgb(21, 21, 21)); color: light-dark(rgb(0, 0, 0), rgb(237, 237, 237)); text-wrap-mode: nowrap;&quot;&gt;Name&lt;/span&gt;&lt;/div&gt;" style="shape=partialRectangle;connectable=0;fillColor=none;top=0;left=0;bottom=0;right=0;align=left;spacingLeft=6;fontStyle=5;overflow=hidden;whiteSpace=wrap;html=1;" parent="gYdM4bsDaqwmHsJYvP-w-122" vertex="1">
          <mxGeometry x="30" width="258" height="30" as="geometry">
            <mxRectangle width="258" height="30" as="alternateBounds" />
          </mxGeometry>
        </mxCell>
        <mxCell id="gYdM4bsDaqwmHsJYvP-w-125" value="" style="shape=tableRow;horizontal=0;startSize=0;swimlaneHead=0;swimlaneBody=0;fillColor=none;collapsible=0;dropTarget=0;points=[[0,0.5],[1,0.5]];portConstraint=eastwest;top=0;left=0;right=0;bottom=0;" parent="gYdM4bsDaqwmHsJYvP-w-121" vertex="1">
          <mxGeometry y="60" width="288" height="30" as="geometry" />
        </mxCell>
        <mxCell id="gYdM4bsDaqwmHsJYvP-w-126" value="PK" style="shape=partialRectangle;connectable=0;fillColor=none;top=0;left=0;bottom=0;right=0;editable=1;overflow=hidden;whiteSpace=wrap;html=1;" parent="gYdM4bsDaqwmHsJYvP-w-125" vertex="1">
          <mxGeometry width="30" height="30" as="geometry">
            <mxRectangle width="30" height="30" as="alternateBounds" />
          </mxGeometry>
        </mxCell>
        <mxCell id="gYdM4bsDaqwmHsJYvP-w-127" value="" style="shape=partialRectangle;connectable=0;fillColor=none;top=0;left=0;bottom=0;right=0;align=left;spacingLeft=6;overflow=hidden;whiteSpace=wrap;html=1;" parent="gYdM4bsDaqwmHsJYvP-w-125" vertex="1">
          <mxGeometry x="30" width="258" height="30" as="geometry">
            <mxRectangle width="258" height="30" as="alternateBounds" />
          </mxGeometry>
        </mxCell>
        <mxCell id="gYdM4bsDaqwmHsJYvP-w-128" value="" style="shape=tableRow;horizontal=0;startSize=0;swimlaneHead=0;swimlaneBody=0;fillColor=none;collapsible=0;dropTarget=0;points=[[0,0.5],[1,0.5]];portConstraint=eastwest;top=0;left=0;right=0;bottom=0;" parent="gYdM4bsDaqwmHsJYvP-w-121" vertex="1">
          <mxGeometry y="90" width="288" height="30" as="geometry" />
        </mxCell>
        <mxCell id="gYdM4bsDaqwmHsJYvP-w-129" value="" style="shape=partialRectangle;connectable=0;fillColor=none;top=0;left=0;bottom=0;right=0;editable=1;overflow=hidden;whiteSpace=wrap;html=1;" parent="gYdM4bsDaqwmHsJYvP-w-128" vertex="1">
          <mxGeometry width="30" height="30" as="geometry">
            <mxRectangle width="30" height="30" as="alternateBounds" />
          </mxGeometry>
        </mxCell>
        <mxCell id="gYdM4bsDaqwmHsJYvP-w-130" value="" style="shape=partialRectangle;connectable=0;fillColor=none;top=0;left=0;bottom=0;right=0;align=left;spacingLeft=6;overflow=hidden;whiteSpace=wrap;html=1;" parent="gYdM4bsDaqwmHsJYvP-w-128" vertex="1">
          <mxGeometry x="30" width="258" height="30" as="geometry">
            <mxRectangle width="258" height="30" as="alternateBounds" />
          </mxGeometry>
        </mxCell>
        <mxCell id="gYdM4bsDaqwmHsJYvP-w-131" value="" style="shape=tableRow;horizontal=0;startSize=0;swimlaneHead=0;swimlaneBody=0;fillColor=none;collapsible=0;dropTarget=0;points=[[0,0.5],[1,0.5]];portConstraint=eastwest;top=0;left=0;right=0;bottom=0;" parent="gYdM4bsDaqwmHsJYvP-w-121" vertex="1">
          <mxGeometry y="120" width="288" height="30" as="geometry" />
        </mxCell>
        <mxCell id="gYdM4bsDaqwmHsJYvP-w-132" value="" style="shape=partialRectangle;connectable=0;fillColor=none;top=0;left=0;bottom=0;right=0;editable=1;overflow=hidden;whiteSpace=wrap;html=1;" parent="gYdM4bsDaqwmHsJYvP-w-131" vertex="1">
          <mxGeometry width="30" height="30" as="geometry">
            <mxRectangle width="30" height="30" as="alternateBounds" />
          </mxGeometry>
        </mxCell>
        <mxCell id="gYdM4bsDaqwmHsJYvP-w-133" value="" style="shape=partialRectangle;connectable=0;fillColor=none;top=0;left=0;bottom=0;right=0;align=left;spacingLeft=6;overflow=hidden;whiteSpace=wrap;html=1;" parent="gYdM4bsDaqwmHsJYvP-w-131" vertex="1">
          <mxGeometry x="30" width="258" height="30" as="geometry">
            <mxRectangle width="258" height="30" as="alternateBounds" />
          </mxGeometry>
        </mxCell>
        <UserObject label="&lt;div&gt;Sl.No&lt;/div&gt;&lt;div&gt;&lt;br&gt;&lt;/div&gt;Sample Collection Date&lt;div&gt;&amp;nbsp;&amp;nbsp;&lt;div&gt;Rake_No&#x9;&lt;/div&gt;&lt;div&gt;&lt;br&gt;&lt;/div&gt;&lt;div&gt;SIDING NO&#x9;&lt;/div&gt;&lt;div&gt;&lt;br&gt;&lt;/div&gt;&lt;div&gt;ARBG.C.V-k.cal/kg&lt;/div&gt;&lt;/div&gt;&lt;div&gt;&lt;br&gt;&lt;/div&gt;&lt;div&gt;Spur name&amp;nbsp;&lt;/div&gt;&lt;div&gt;&lt;br&gt;&lt;/div&gt;&lt;div&gt;Spur Qty&lt;/div&gt;" id="gYdM4bsDaqwmHsJYvP-w-134">
          <mxCell style="text;whiteSpace=wrap;html=1;" parent="1" vertex="1">
            <mxGeometry x="1483" y="307" width="190" height="168" as="geometry" />
          </mxCell>
        </UserObject>
        <mxCell id="gYdM4bsDaqwmHsJYvP-w-135" value="" style="endArrow=none;html=1;rounded=0;entryX=0.129;entryY=0.981;entryDx=0;entryDy=0;entryPerimeter=0;" parent="1" edge="1">
          <mxGeometry width="50" height="50" relative="1" as="geometry">
            <mxPoint x="1475" y="505" as="sourcePoint" />
            <mxPoint x="1475.0899999999997" y="395.00000000000006" as="targetPoint" />
          </mxGeometry>
        </mxCell>
        <mxCell id="gYdM4bsDaqwmHsJYvP-w-137" value="" style="edgeStyle=entityRelationEdgeStyle;fontSize=12;html=1;endArrow=ERmandOne;startArrow=ERmandOne;rounded=0;exitX=1;exitY=0.5;exitDx=0;exitDy=0;entryX=0;entryY=0.5;entryDx=0;entryDy=0;" parent="1" source="gYdM4bsDaqwmHsJYvP-w-82" target="gYdM4bsDaqwmHsJYvP-w-128" edge="1">
          <mxGeometry width="100" height="100" relative="1" as="geometry">
            <mxPoint x="1225" y="360" as="sourcePoint" />
            <mxPoint x="1325" y="260" as="targetPoint" />
          </mxGeometry>
        </mxCell>
        <mxCell id="gYdM4bsDaqwmHsJYvP-w-138" value="" style="edgeStyle=entityRelationEdgeStyle;fontSize=12;html=1;endArrow=ERone;endFill=1;rounded=0;exitX=1;exitY=0.5;exitDx=0;exitDy=0;entryX=0;entryY=0.75;entryDx=0;entryDy=0;" parent="1" source="gYdM4bsDaqwmHsJYvP-w-109" target="gYdM4bsDaqwmHsJYvP-w-121" edge="1">
          <mxGeometry width="100" height="100" relative="1" as="geometry">
            <mxPoint x="1070" y="510" as="sourcePoint" />
            <mxPoint x="1380" y="340" as="targetPoint" />
          </mxGeometry>
        </mxCell>
        <mxCell id="_dtVbm7WVHYgLpaVK0QW-2" value="&lt;font style=&quot;font-size: 12px;&quot;&gt;&lt;b style=&quot;&quot;&gt;&lt;u style=&quot;&quot;&gt;Data Types&lt;/u&gt;&lt;/b&gt;&lt;/font&gt;" style="text;html=1;align=center;verticalAlign=middle;whiteSpace=wrap;rounded=0;" parent="1" vertex="1">
          <mxGeometry x="205" y="75" width="70" height="23" as="geometry" />
        </mxCell>
        <mxCell id="_dtVbm7WVHYgLpaVK0QW-3" value="&lt;div style=&quot;text-align: left;&quot;&gt;Int&lt;/div&gt;&lt;div style=&quot;text-align: left;&quot;&gt;&lt;br&gt;&lt;/div&gt;Varchar&lt;div&gt;&lt;br&gt;&lt;div style=&quot;text-align: left;&quot;&gt;Int&lt;/div&gt;&lt;/div&gt;" style="text;html=1;align=center;verticalAlign=middle;whiteSpace=wrap;rounded=0;" parent="1" vertex="1">
          <mxGeometry x="203" y="105" width="58" height="70" as="geometry" />
        </mxCell>
        <mxCell id="_dtVbm7WVHYgLpaVK0QW-4" value="" style="endArrow=none;html=1;rounded=0;entryX=0.657;entryY=0;entryDx=0;entryDy=0;entryPerimeter=0;exitX=0.886;exitY=1.018;exitDx=0;exitDy=0;exitPerimeter=0;" parent="1" source="hRT7QsjVRdOqOcWxOTI7-8" target="C-vyLk0tnHw3VtMMgP7b-3" edge="1">
          <mxGeometry width="50" height="50" relative="1" as="geometry">
            <mxPoint x="690" y="490" as="sourcePoint" />
            <mxPoint x="470" y="300" as="targetPoint" />
          </mxGeometry>
        </mxCell>
        <mxCell id="_dtVbm7WVHYgLpaVK0QW-18" value="&lt;div&gt;&lt;br&gt;&lt;/div&gt;&lt;div&gt;Int&lt;/div&gt;&lt;div&gt;&lt;br&gt;&lt;/div&gt;Varchar&lt;div&gt;&lt;br&gt;&lt;div&gt;Int&lt;/div&gt;&lt;div&gt;&lt;br&gt;&lt;/div&gt;&lt;div&gt;Int&lt;/div&gt;&lt;div&gt;&lt;br&gt;&lt;/div&gt;&lt;div&gt;Int&lt;/div&gt;&lt;div&gt;&lt;br&gt;&lt;/div&gt;&lt;div&gt;Int&lt;/div&gt;&lt;div&gt;&lt;br&gt;&lt;/div&gt;&lt;div&gt;Int&lt;/div&gt;&lt;div&gt;&lt;br&gt;&lt;/div&gt;&lt;div&gt;Int&lt;/div&gt;&lt;div&gt;&lt;br&gt;&lt;/div&gt;&lt;div&gt;Int&lt;/div&gt;&lt;div&gt;&lt;br&gt;&lt;/div&gt;&lt;div&gt;Int&lt;/div&gt;&lt;div&gt;&lt;br&gt;&lt;/div&gt;&lt;div&gt;Int&lt;/div&gt;&lt;div&gt;&lt;br&gt;&lt;/div&gt;&lt;div&gt;Int&lt;/div&gt;&lt;div&gt;&lt;br&gt;&lt;/div&gt;&lt;div&gt;Int&lt;/div&gt;&lt;div&gt;&lt;br&gt;&lt;/div&gt;&lt;div&gt;Int&lt;/div&gt;&lt;div&gt;&lt;br&gt;&lt;/div&gt;&lt;div&gt;Int&lt;/div&gt;&lt;/div&gt;" style="text;html=1;align=left;verticalAlign=middle;whiteSpace=wrap;rounded=0;" parent="1" vertex="1">
          <mxGeometry x="718" y="99" width="76" height="385" as="geometry" />
        </mxCell>
        <mxCell id="_dtVbm7WVHYgLpaVK0QW-19" value="&lt;font style=&quot;font-size: 12px;&quot;&gt;&lt;b style=&quot;&quot;&gt;&lt;u style=&quot;&quot;&gt;Data Types&lt;/u&gt;&lt;/b&gt;&lt;/font&gt;" style="text;html=1;align=center;verticalAlign=middle;whiteSpace=wrap;rounded=0;" parent="1" vertex="1">
          <mxGeometry x="710" y="64" width="70" height="23" as="geometry" />
        </mxCell>
        <mxCell id="_dtVbm7WVHYgLpaVK0QW-21" value="" style="endArrow=none;html=1;rounded=0;entryX=0.142;entryY=0.952;entryDx=0;entryDy=0;entryPerimeter=0;" parent="1" edge="1">
          <mxGeometry width="50" height="50" relative="1" as="geometry">
            <mxPoint x="51" y="1380" as="sourcePoint" />
            <mxPoint x="50.66000000000008" y="990.5600000000002" as="targetPoint" />
          </mxGeometry>
        </mxCell>
        <mxCell id="_dtVbm7WVHYgLpaVK0QW-22" value="" style="edgeStyle=entityRelationEdgeStyle;fontSize=12;html=1;endArrow=ERone;endFill=1;rounded=0;entryX=1;entryY=0.5;entryDx=0;entryDy=0;" parent="1" target="gYdM4bsDaqwmHsJYvP-w-23" edge="1">
          <mxGeometry width="100" height="100" relative="1" as="geometry">
            <mxPoint x="280" y="760" as="sourcePoint" />
            <mxPoint x="380" y="1180" as="targetPoint" />
            <Array as="points">
              <mxPoint x="300" y="860" />
            </Array>
          </mxGeometry>
        </mxCell>
        <mxCell id="_dtVbm7WVHYgLpaVK0QW-23" value="" style="endArrow=none;html=1;rounded=0;" parent="1" edge="1">
          <mxGeometry width="50" height="50" relative="1" as="geometry">
            <mxPoint x="200" y="1390" as="sourcePoint" />
            <mxPoint x="194" y="880" as="targetPoint" />
          </mxGeometry>
        </mxCell>
        <mxCell id="_dtVbm7WVHYgLpaVK0QW-24" value="" style="endArrow=none;html=1;rounded=0;entryX=0.681;entryY=0.011;entryDx=0;entryDy=0;entryPerimeter=0;" parent="1" edge="1">
          <mxGeometry width="50" height="50" relative="1" as="geometry">
            <mxPoint x="182" y="800" as="sourcePoint" />
            <mxPoint x="182.06000000000017" y="558.3299999999999" as="targetPoint" />
          </mxGeometry>
        </mxCell>
        <mxCell id="_dtVbm7WVHYgLpaVK0QW-25" value="&lt;font style=&quot;font-size: 12px;&quot;&gt;&lt;b style=&quot;&quot;&gt;&lt;u style=&quot;&quot;&gt;Data Types&lt;/u&gt;&lt;/b&gt;&lt;/font&gt;" style="text;html=1;align=center;verticalAlign=middle;whiteSpace=wrap;rounded=0;" parent="1" vertex="1">
          <mxGeometry x="196" y="562" width="70" height="23" as="geometry" />
        </mxCell>
        <mxCell id="_dtVbm7WVHYgLpaVK0QW-26" value="Decision ID" style="text;html=1;align=center;verticalAlign=middle;whiteSpace=wrap;rounded=0;" parent="1" vertex="1">
          <mxGeometry x="76.5" y="149" width="80" height="30" as="geometry" />
        </mxCell>
        <mxCell id="_dtVbm7WVHYgLpaVK0QW-27" value="&lt;br&gt;&lt;span style=&quot;color: rgb(0, 0, 0); font-family: Helvetica; font-size: 12px; font-style: normal; font-variant-ligatures: normal; font-variant-caps: normal; letter-spacing: normal; orphans: 2; text-align: left; text-indent: 0px; text-transform: none; widows: 2; word-spacing: 0px; -webkit-text-stroke-width: 0px; white-space: nowrap; background-color: rgb(251, 251, 251); float: none; display: inline !important;&quot;&gt;SL.NO&lt;/span&gt;" style="text;html=1;align=center;verticalAlign=middle;whiteSpace=wrap;rounded=0;" parent="1" vertex="1">
          <mxGeometry x="462" y="79" width="60" height="30" as="geometry" />
        </mxCell>
        <mxCell id="_dtVbm7WVHYgLpaVK0QW-28" value="FK1" style="text;html=1;align=center;verticalAlign=middle;whiteSpace=wrap;rounded=0;" parent="1" vertex="1">
          <mxGeometry x="412" y="114" width="60" height="30" as="geometry" />
        </mxCell>
        <mxCell id="_dtVbm7WVHYgLpaVK0QW-29" value="&lt;span style=&quot;text-align: left;&quot;&gt;WT ID&lt;/span&gt;" style="text;html=1;align=center;verticalAlign=middle;whiteSpace=wrap;rounded=0;" parent="1" vertex="1">
          <mxGeometry x="48" y="909" width="60" height="30" as="geometry" />
        </mxCell>
        <mxCell id="_dtVbm7WVHYgLpaVK0QW-30" value="PK" style="text;html=1;align=center;verticalAlign=middle;whiteSpace=wrap;rounded=0;" parent="1" vertex="1">
          <mxGeometry x="6" y="915" width="60" height="30" as="geometry" />
        </mxCell>
        <mxCell id="_dtVbm7WVHYgLpaVK0QW-31" value="&lt;font style=&quot;font-size: 12px;&quot;&gt;&lt;b style=&quot;&quot;&gt;&lt;u style=&quot;&quot;&gt;Data Types&lt;/u&gt;&lt;/b&gt;&lt;/font&gt;" style="text;html=1;align=center;verticalAlign=middle;whiteSpace=wrap;rounded=0;" parent="1" vertex="1">
          <mxGeometry x="205" y="885" width="70" height="23" as="geometry" />
        </mxCell>
        <mxCell id="_dtVbm7WVHYgLpaVK0QW-33" value="" style="endArrow=none;html=1;rounded=0;entryX=0.114;entryY=1.105;entryDx=0;entryDy=0;entryPerimeter=0;" parent="1" edge="1">
          <mxGeometry width="50" height="50" relative="1" as="geometry">
            <mxPoint x="50" y="797" as="sourcePoint" />
            <mxPoint x="49.63999999999987" y="618.1500000000001" as="targetPoint" />
          </mxGeometry>
        </mxCell>
        <mxCell id="_dtVbm7WVHYgLpaVK0QW-34" value="&lt;span style=&quot;text-align: left; text-wrap-mode: nowrap;&quot;&gt;Pile id&lt;/span&gt;" style="text;html=1;align=center;verticalAlign=middle;whiteSpace=wrap;rounded=0;" parent="1" vertex="1">
          <mxGeometry x="51" y="590" width="60" height="30" as="geometry" />
        </mxCell>
        <mxCell id="_dtVbm7WVHYgLpaVK0QW-35" value="&lt;div&gt;FK1&lt;/div&gt;" style="text;html=1;align=center;verticalAlign=middle;whiteSpace=wrap;rounded=0;" parent="1" vertex="1">
          <mxGeometry x="6" y="590" width="60" height="30" as="geometry" />
        </mxCell>
        <mxCell id="_dtVbm7WVHYgLpaVK0QW-36" value="Pile Id" style="text;html=1;align=center;verticalAlign=middle;whiteSpace=wrap;rounded=0;" parent="1" vertex="1">
          <mxGeometry x="463" y="684" width="60" height="30" as="geometry" />
        </mxCell>
        <mxCell id="_dtVbm7WVHYgLpaVK0QW-37" value="FK1" style="text;html=1;align=center;verticalAlign=middle;whiteSpace=wrap;rounded=0;" parent="1" vertex="1">
          <mxGeometry x="425" y="684" width="60" height="30" as="geometry" />
        </mxCell>
        <mxCell id="_dtVbm7WVHYgLpaVK0QW-38" value="" style="endArrow=none;html=1;rounded=0;entryX=0.585;entryY=-0.044;entryDx=0;entryDy=0;entryPerimeter=0;" parent="1" target="C-vyLk0tnHw3VtMMgP7b-14" edge="1">
          <mxGeometry width="50" height="50" relative="1" as="geometry">
            <mxPoint x="609" y="1163" as="sourcePoint" />
            <mxPoint x="550" y="810" as="targetPoint" />
          </mxGeometry>
        </mxCell>
        <mxCell id="_dtVbm7WVHYgLpaVK0QW-39" value="PK" style="text;html=1;align=center;verticalAlign=middle;whiteSpace=wrap;rounded=0;" parent="1" vertex="1">
          <mxGeometry x="30" y="94" width="60" height="30" as="geometry" />
        </mxCell>
        <mxCell id="_dtVbm7WVHYgLpaVK0QW-40" value="Varchar&lt;div&gt;Int&lt;/div&gt;&lt;div&gt;Int&lt;/div&gt;&lt;div&gt;Int&lt;/div&gt;&lt;div&gt;Int&lt;/div&gt;&lt;div&gt;Int&lt;/div&gt;&lt;div&gt;Int&lt;/div&gt;&lt;div&gt;Int&lt;/div&gt;&lt;div&gt;Int&lt;/div&gt;&lt;div&gt;Int&lt;/div&gt;&lt;div&gt;Int&lt;/div&gt;&lt;div&gt;Int&lt;/div&gt;&lt;div&gt;Int&lt;/div&gt;" style="text;html=1;align=left;verticalAlign=middle;whiteSpace=wrap;rounded=0;" parent="1" vertex="1">
          <mxGeometry x="203" y="592" width="60" height="200" as="geometry" />
        </mxCell>
        <mxCell id="_dtVbm7WVHYgLpaVK0QW-41" value="Int&lt;div&gt;&lt;br&gt;&lt;div&gt;Datetime&lt;/div&gt;&lt;div&gt;&lt;br&gt;&lt;/div&gt;&lt;div&gt;Varchar&lt;/div&gt;&lt;div&gt;&lt;br&gt;&lt;/div&gt;&lt;div&gt;Varchar&lt;/div&gt;&lt;div&gt;&lt;br&gt;&lt;/div&gt;&lt;div&gt;Int&lt;/div&gt;&lt;div&gt;&lt;br&gt;&lt;/div&gt;&lt;div&gt;Varchar&lt;/div&gt;&lt;div&gt;&lt;br&gt;&lt;/div&gt;&lt;/div&gt;&lt;div&gt;Int&lt;/div&gt;&lt;div&gt;&lt;br&gt;&lt;/div&gt;&lt;div&gt;Int&lt;/div&gt;&lt;div&gt;&lt;br&gt;&lt;/div&gt;&lt;div&gt;Datetime&lt;/div&gt;&lt;div&gt;&lt;br&gt;&lt;/div&gt;&lt;div&gt;Int&lt;/div&gt;&lt;div&gt;&lt;br&gt;&lt;/div&gt;&lt;div&gt;Int&lt;/div&gt;&lt;div&gt;&lt;br&gt;&lt;/div&gt;&lt;div&gt;Int&lt;/div&gt;&lt;div&gt;&lt;br&gt;&lt;/div&gt;&lt;div&gt;Int&lt;/div&gt;&lt;div&gt;&lt;br&gt;&lt;/div&gt;&lt;div&gt;Int&lt;/div&gt;&lt;div&gt;&lt;br&gt;&lt;/div&gt;&lt;div&gt;Int&lt;/div&gt;&lt;div&gt;&lt;br&gt;&lt;/div&gt;&lt;div&gt;Int&lt;/div&gt;&lt;div&gt;&lt;br&gt;&lt;/div&gt;&lt;div&gt;Int&lt;/div&gt;" style="text;html=1;align=left;verticalAlign=middle;whiteSpace=wrap;rounded=0;" parent="1" vertex="1">
          <mxGeometry x="210" y="918" width="60" height="462" as="geometry" />
        </mxCell>
        <mxCell id="_dtVbm7WVHYgLpaVK0QW-42" value="&lt;font style=&quot;font-size: 12px;&quot;&gt;&lt;b style=&quot;&quot;&gt;&lt;u style=&quot;&quot;&gt;Data Types&lt;/u&gt;&lt;/b&gt;&lt;/font&gt;" style="text;html=1;align=center;verticalAlign=middle;whiteSpace=wrap;rounded=0;" parent="1" vertex="1">
          <mxGeometry x="630" y="635" width="70" height="23" as="geometry" />
        </mxCell>
        <mxCell id="_dtVbm7WVHYgLpaVK0QW-43" value="Int&lt;div&gt;Varchar&lt;/div&gt;&lt;div&gt;&lt;div style=&quot;&quot;&gt;&lt;br&gt;&lt;div&gt;Datetime&lt;/div&gt;&lt;div&gt;&lt;br&gt;&lt;/div&gt;&lt;div&gt;Int&lt;/div&gt;&lt;div&gt;&lt;br&gt;&lt;/div&gt;&lt;div&gt;Varchar&lt;/div&gt;&lt;div&gt;&lt;br&gt;&lt;/div&gt;&lt;div&gt;Int&lt;/div&gt;&lt;div&gt;&lt;br&gt;&lt;/div&gt;&lt;div&gt;Varchar&lt;/div&gt;&lt;div&gt;&lt;br&gt;&lt;/div&gt;&lt;/div&gt;&lt;div style=&quot;&quot;&gt;Int&lt;/div&gt;&lt;div style=&quot;&quot;&gt;&lt;br&gt;&lt;/div&gt;&lt;div style=&quot;&quot;&gt;Int&lt;/div&gt;&lt;div style=&quot;&quot;&gt;&lt;br&gt;&lt;/div&gt;&lt;div style=&quot;&quot;&gt;Datetime&lt;/div&gt;&lt;div style=&quot;&quot;&gt;&lt;br&gt;&lt;/div&gt;&lt;div style=&quot;&quot;&gt;Int&lt;/div&gt;&lt;div style=&quot;&quot;&gt;&lt;br&gt;&lt;/div&gt;&lt;div style=&quot;&quot;&gt;Int&lt;/div&gt;&lt;div style=&quot;&quot;&gt;&lt;br&gt;&lt;/div&gt;&lt;div style=&quot;&quot;&gt;Int&lt;/div&gt;&lt;div style=&quot;&quot;&gt;&lt;br&gt;&lt;/div&gt;&lt;div style=&quot;&quot;&gt;Int&lt;/div&gt;&lt;div style=&quot;&quot;&gt;&lt;br&gt;&lt;/div&gt;&lt;div style=&quot;&quot;&gt;Int&lt;/div&gt;&lt;div style=&quot;&quot;&gt;&lt;br&gt;&lt;/div&gt;&lt;div style=&quot;&quot;&gt;Int&lt;/div&gt;&lt;div style=&quot;&quot;&gt;&lt;br&gt;&lt;/div&gt;&lt;div style=&quot;&quot;&gt;Int&lt;/div&gt;&lt;div style=&quot;&quot;&gt;&lt;br&gt;&lt;/div&gt;&lt;div style=&quot;&quot;&gt;Int&lt;/div&gt;&lt;/div&gt;" style="text;html=1;align=left;verticalAlign=middle;whiteSpace=wrap;rounded=0;" parent="1" vertex="1">
          <mxGeometry x="637" y="668" width="82" height="483" as="geometry" />
        </mxCell>
        <mxCell id="_dtVbm7WVHYgLpaVK0QW-45" value="&lt;span style=&quot;text-align: left;&quot;&gt;Spur Name&lt;/span&gt;" style="text;html=1;align=center;verticalAlign=middle;whiteSpace=wrap;rounded=0;" parent="1" vertex="1">
          <mxGeometry x="929" y="413" width="70" height="30" as="geometry" />
        </mxCell>
        <mxCell id="_dtVbm7WVHYgLpaVK0QW-46" value="&lt;font style=&quot;font-size: 12px;&quot;&gt;&lt;b style=&quot;&quot;&gt;&lt;u style=&quot;&quot;&gt;Data Types&lt;/u&gt;&lt;/b&gt;&lt;/font&gt;" style="text;html=1;align=center;verticalAlign=middle;whiteSpace=wrap;rounded=0;" parent="1" vertex="1">
          <mxGeometry x="1030" y="310" width="70" height="23" as="geometry" />
        </mxCell>
        <mxCell id="_dtVbm7WVHYgLpaVK0QW-47" value="Int&lt;div&gt;&lt;br&gt;&lt;div&gt;Int&lt;/div&gt;&lt;div&gt;&lt;br&gt;&lt;/div&gt;&lt;div&gt;Varchar&lt;/div&gt;&lt;div&gt;&lt;br&gt;&lt;/div&gt;&lt;div&gt;Varchar&lt;/div&gt;&lt;/div&gt;" style="text;html=1;align=left;verticalAlign=middle;whiteSpace=wrap;rounded=0;" parent="1" vertex="1">
          <mxGeometry x="1049" y="333" width="60" height="107" as="geometry" />
        </mxCell>
        <mxCell id="_dtVbm7WVHYgLpaVK0QW-48" value="" style="endArrow=none;html=1;rounded=0;entryX=0.665;entryY=0;entryDx=0;entryDy=0;entryPerimeter=0;" parent="1" edge="1">
          <mxGeometry width="50" height="50" relative="1" as="geometry">
            <mxPoint x="1625" y="505" as="sourcePoint" />
            <mxPoint x="1625.12" y="276.9999999999999" as="targetPoint" />
          </mxGeometry>
        </mxCell>
        <mxCell id="_dtVbm7WVHYgLpaVK0QW-49" value="&lt;font style=&quot;font-size: 12px;&quot;&gt;&lt;b style=&quot;&quot;&gt;&lt;u style=&quot;&quot;&gt;Data Types&lt;/u&gt;&lt;/b&gt;&lt;/font&gt;" style="text;html=1;align=center;verticalAlign=middle;whiteSpace=wrap;rounded=0;" parent="1" vertex="1">
          <mxGeometry x="1641" y="281" width="70" height="23" as="geometry" />
        </mxCell>
        <mxCell id="_dtVbm7WVHYgLpaVK0QW-50" value="Int&lt;div&gt;&lt;br&gt;&lt;div&gt;Datetime&lt;/div&gt;&lt;/div&gt;&lt;div&gt;&lt;br&gt;&lt;/div&gt;&lt;div&gt;Varchar&lt;/div&gt;&lt;div&gt;&lt;br&gt;&lt;/div&gt;&lt;div&gt;Varchar&lt;/div&gt;&lt;div&gt;&lt;br&gt;&lt;/div&gt;&lt;div&gt;Int&lt;/div&gt;&lt;div&gt;&lt;br&gt;&lt;/div&gt;&lt;div&gt;Varchar&lt;/div&gt;&lt;div&gt;&lt;br&gt;&lt;/div&gt;&lt;div&gt;Int&lt;/div&gt;" style="text;html=1;align=left;verticalAlign=middle;whiteSpace=wrap;rounded=0;" parent="1" vertex="1">
          <mxGeometry x="1649" y="311" width="60" height="194" as="geometry" />
        </mxCell>
        <mxCell id="_dtVbm7WVHYgLpaVK0QW-52" value="&lt;font style=&quot;font-size: 12px;&quot;&gt;&lt;b style=&quot;&quot;&gt;&lt;u style=&quot;&quot;&gt;Data Types&lt;/u&gt;&lt;/b&gt;&lt;/font&gt;" style="text;html=1;align=center;verticalAlign=middle;whiteSpace=wrap;rounded=0;" parent="1" vertex="1">
          <mxGeometry x="933" y="698" width="70" height="23" as="geometry" />
        </mxCell>
        <mxCell id="_dtVbm7WVHYgLpaVK0QW-53" value="Int&lt;div&gt;&lt;br&gt;&lt;div&gt;Varchar&lt;/div&gt;&lt;div&gt;&lt;br&gt;&lt;/div&gt;&lt;div&gt;Varchar&lt;/div&gt;&lt;/div&gt;" style="text;html=1;align=center;verticalAlign=middle;whiteSpace=wrap;rounded=0;" parent="1" vertex="1">
          <mxGeometry x="934" y="720" width="60" height="109" as="geometry" />
        </mxCell>
        <mxCell id="_dtVbm7WVHYgLpaVK0QW-54" value="&lt;span style=&quot;text-align: left;&quot;&gt;Using Spur Qty&lt;/span&gt;" style="text;html=1;align=center;verticalAlign=middle;whiteSpace=wrap;rounded=0;" parent="1" vertex="1">
          <mxGeometry x="820" y="1018" width="120" height="30" as="geometry" />
        </mxCell>
        <mxCell id="_dtVbm7WVHYgLpaVK0QW-56" value="" style="endArrow=none;html=1;rounded=0;entryX=0.687;entryY=0.119;entryDx=0;entryDy=0;entryPerimeter=0;" parent="1" edge="1">
          <mxGeometry width="50" height="50" relative="1" as="geometry">
            <mxPoint x="928" y="1056" as="sourcePoint" />
            <mxPoint x="928.5300000000002" y="908.5700000000002" as="targetPoint" />
          </mxGeometry>
        </mxCell>
        <mxCell id="_dtVbm7WVHYgLpaVK0QW-57" value="" style="endArrow=none;html=1;rounded=0;entryX=0.089;entryY=0.04;entryDx=0;entryDy=0;entryPerimeter=0;exitX=0.097;exitY=1.151;exitDx=0;exitDy=0;exitPerimeter=0;" parent="1" edge="1">
          <mxGeometry width="50" height="50" relative="1" as="geometry">
            <mxPoint x="830.6399999999999" y="1053.5300000000002" as="sourcePoint" />
            <mxPoint x="829.6800000000003" y="1020.2" as="targetPoint" />
          </mxGeometry>
        </mxCell>
        <mxCell id="_dtVbm7WVHYgLpaVK0QW-58" value="&lt;font style=&quot;font-size: 12px;&quot;&gt;&lt;b style=&quot;&quot;&gt;&lt;u style=&quot;&quot;&gt;Data Types&lt;/u&gt;&lt;/b&gt;&lt;/font&gt;" style="text;html=1;align=center;verticalAlign=middle;whiteSpace=wrap;rounded=0;" parent="1" vertex="1">
          <mxGeometry x="934" y="916" width="70" height="23" as="geometry" />
        </mxCell>
        <mxCell id="_dtVbm7WVHYgLpaVK0QW-59" value="Varchar&lt;br&gt;&lt;div&gt;&lt;br&gt;&lt;div&gt;Int&lt;/div&gt;&lt;div&gt;&lt;br&gt;&lt;/div&gt;&lt;div&gt;Varchar&lt;/div&gt;&lt;/div&gt;&lt;div&gt;&lt;br&gt;&lt;/div&gt;&lt;div&gt;Int&lt;/div&gt;" style="text;html=1;align=left;verticalAlign=middle;whiteSpace=wrap;rounded=0;" parent="1" vertex="1">
          <mxGeometry x="944" y="938" width="60" height="109" as="geometry" />
        </mxCell>
        <mxCell id="_dtVbm7WVHYgLpaVK0QW-61" value="&lt;font style=&quot;font-size: 12px;&quot;&gt;&lt;b style=&quot;&quot;&gt;&lt;u style=&quot;&quot;&gt;Data Types&lt;/u&gt;&lt;/b&gt;&lt;/font&gt;" style="text;html=1;align=center;verticalAlign=middle;whiteSpace=wrap;rounded=0;" parent="1" vertex="1">
          <mxGeometry x="1227" y="742" width="70" height="23" as="geometry" />
        </mxCell>
        <mxCell id="_dtVbm7WVHYgLpaVK0QW-62" value="Int&lt;div&gt;&lt;br&gt;&lt;div&gt;Int&lt;/div&gt;&lt;div&gt;&lt;br&gt;&lt;/div&gt;&lt;div&gt;Varchar&lt;/div&gt;&lt;/div&gt;" style="text;html=1;align=left;verticalAlign=middle;whiteSpace=wrap;rounded=0;" parent="1" vertex="1">
          <mxGeometry x="1240" y="765" width="60" height="100" as="geometry" />
        </mxCell>
      </root>
    </mxGraphModel>
  </diagram>
</mxfile>
